<?xml version="1.0" encoding="UTF-8" standalone="no"?>
<!-- Created with Inkscape (http://www.inkscape.org/) -->

<svg
   width="210mm"
   height="297mm"
   viewBox="0 0 210 297"
   version="1.1"
   id="svg5"
   inkscape:version="1.1.1 (c3084ef, 2021-09-22)"
   sodipodi:docname="css3_logo_edited.svg"
   xmlns:inkscape="http://www.inkscape.org/namespaces/inkscape"
   xmlns:sodipodi="http://sodipodi.sourceforge.net/DTD/sodipodi-0.dtd"
   xmlns="http://www.w3.org/2000/svg"
   xmlns:svg="http://www.w3.org/2000/svg">
  <sodipodi:namedview
     id="namedview7"
     pagecolor="#ffffff"
     bordercolor="#666666"
     borderopacity="1.0"
     inkscape:pageshadow="2"
     inkscape:pageopacity="0.0"
     inkscape:pagecheckerboard="0"
     inkscape:document-units="mm"
     showgrid="false"
     inkscape:zoom="0.6289422"
     inkscape:cx="396.69782"
     inkscape:cy="560.46486"
     inkscape:window-width="1616"
     inkscape:window-height="1099"
     inkscape:window-x="2127"
     inkscape:window-y="237"
     inkscape:window-maximized="0"
     inkscape:current-layer="g3013" />
  <defs
     id="defs2" />
  <g
     inkscape:label="Layer 1"
     inkscape:groupmode="layer"
     id="layer1">
    <g
       id="g3013"
       transform="matrix(0.5767981,0,0,0.57965604,-42.490342,0.52873489)">
      <polygon
         id="polygon2989"
         points="107.644,470.877 74.633,100.62 437.367,100.62 404.321,470.819 255.778,512 "
         style="fill:#264de4"
         transform="translate(0,-50.076097)" />
      <polygon
         id="polygon2991"
         points="376.03,447.246 404.27,130.894 256,130.894 256,480.523 "
         style="fill:#2965f1"
         transform="translate(0,-50.076097)" />
      <polygon
         id="polygon2993"
         points="154.38,313.627 256,313.627 256,268.217 150.31,268.217 "
         style="fill:#ebebeb"
         transform="translate(-0.157,-50.076097)" />
      <polygon
         id="polygon2995"
         points="146.26,221.716 256,221.716 256,176.305 255.843,176.305 142.132,176.305 "
         style="fill:#ebebeb"
         transform="translate(0,-50.076097)" />
      <polygon
         id="polygon2997"
         points="255.791,433.457 256,433.399 256,386.153 255.801,386.206 205.227,372.55 201.994,336.333 177.419,336.333 156.409,336.333 162.771,407.634 "
         style="fill:#ebebeb"
         transform="translate(0,-50.076097)" />
      <polygon
         id="polygon3005"
         points="369.597,176.305 255.843,176.305 255.843,221.716 319.831,221.716 315.699,268.217 255.843,268.217 255.843,313.627 311.761,313.627 306.49,372.521 255.843,386.191 255.843,433.435 348.937,407.634 349.62,399.962 360.291,280.411 361.399,268.217 "
         style="fill:#ffffff"
         transform="translate(0,-50.076097)" />
    </g>
  </g>
</svg>
