<?xml version="1.0" encoding="UTF-8" standalone="no"?>
<!-- Created with Inkscape (http://www.inkscape.org/) -->

<svg
   width="210mm"
   height="297mm"
   viewBox="0 0 210 297"
   version="1.1"
   id="svg5"
   inkscape:version="1.1.1 (c3084ef, 2021-09-22)"
   sodipodi:docname="Javascript-shield.svg"
   xmlns:inkscape="http://www.inkscape.org/namespaces/inkscape"
   xmlns:sodipodi="http://sodipodi.sourceforge.net/DTD/sodipodi-0.dtd"
   xmlns="http://www.w3.org/2000/svg"
   xmlns:svg="http://www.w3.org/2000/svg">
  <sodipodi:namedview
     id="namedview7"
     pagecolor="#ffffff"
     bordercolor="#666666"
     borderopacity="1.0"
     inkscape:pageshadow="2"
     inkscape:pageopacity="0.0"
     inkscape:pagecheckerboard="0"
     inkscape:document-units="mm"
     showgrid="false"
     inkscape:zoom="0.6289422"
     inkscape:cx="397.49281"
     inkscape:cy="628.83362"
     inkscape:window-width="2087"
     inkscape:window-height="1231"
     inkscape:window-x="2121"
     inkscape:window-y="64"
     inkscape:window-maximized="0"
     inkscape:current-layer="layer1" />
  <defs
     id="defs2" />
  <g
     inkscape:label="Layer 1"
     inkscape:groupmode="layer"
     id="layer1">
    <g
       id="g5193"
       transform="matrix(0.81711904,0,0,0.80363532,4.7112439,-59.508408)">
      <path
         id="path5113"
         class="st0"
         d="M 18.8,375.4 -5,113.4 251.4,113.5 227.8,375.2 123,404.8 Z m 189.7,-14.3 19.9,-224.4 h -105 l 0.8,247.5 z M 113.6,169.6 H 88.1 l -0.3,134.3 -49.5,-13.5 0.1,30.7 75.2,20.3 z" />
      <path
         id="path5159"
         class="st1"
         d="m 105.2,338.9 c -3.3,-1 -19.6,-5.4 -36.2,-9.9 l -30.1,-8.1 v -15.1 c 0,-14.8 0,-15.1 1.5,-14.6 0.8,0.3 11.8,3.3 24.4,6.8 l 22.9,6.3 0.2,-67 0.2,-67 h 25 v 85.2 c 0,67.7 -0.2,85.2 -0.9,85.2 -0.5,-0.1 -3.7,-0.9 -7,-1.8 z" />
      <path
         id="path5157"
         class="st2"
         d="m 38.4,321.1 -0.1,-30.7 c 0,0 31.6,8.9 49.5,13.5 l 0.3,-134.2 h 25.5 v 171.7 z" />
      <path
         id="path5117"
         class="st3"
         d="m 123.4,136.6 h 105 L 208.5,361 123.4,384.1 Z m 79.7,186.8 6.9,-83.9 -51,5.7 v -44.8 l 54.4,-0.2 2.2,-30.6 -82.1,0.4 1.1,111.4 49.6,-8.5 -0.7,24.8 -50,13.3 0.5,30.4 z" />
    </g>
  </g>
  <style
     id="style824">.st0{fill:#d4b830}.st1,.st2{opacity:.986;fill:#ebebeb;fill-opacity:0;enable-background:new}.st2{fill-opacity:.9216}.st3{fill:#fdd83c}</style>
</svg>
