<?xml version="1.0" encoding="UTF-8" standalone="no"?>
<!-- Created with Inkscape (http://www.inkscape.org/) -->

<svg
   width="210mm"
   height="297mm"
   viewBox="0 0 210 297"
   version="1.1"
   id="svg5"
   sodipodi:docname="jraphic_design.svg"
   inkscape:version="1.1.1 (c3084ef, 2021-09-22)"
   xmlns:inkscape="http://www.inkscape.org/namespaces/inkscape"
   xmlns:sodipodi="http://sodipodi.sourceforge.net/DTD/sodipodi-0.dtd"
   xmlns="http://www.w3.org/2000/svg"
   xmlns:svg="http://www.w3.org/2000/svg">
  <sodipodi:namedview
     id="namedview7"
     pagecolor="#ffffff"
     bordercolor="#666666"
     borderopacity="1.0"
     inkscape:pageshadow="2"
     inkscape:pageopacity="0.0"
     inkscape:pagecheckerboard="0"
     inkscape:document-units="mm"
     showgrid="false"
     inkscape:zoom="1.2578844"
     inkscape:cx="366.09087"
     inkscape:cy="601.00912"
     inkscape:window-width="1716"
     inkscape:window-height="1214"
     inkscape:window-x="2070"
     inkscape:window-y="97"
     inkscape:window-maximized="0"
     inkscape:current-layer="layer1" />
  <defs
     id="defs2" />
  <g
     inkscape:label="Layer 1"
     inkscape:groupmode="layer"
     id="layer1">
    <g
       id="g312"
       transform="matrix(1.3407354,0,0,1.347434,-4.9529853,38.531368)"
       style="fill:#000000;fill-opacity:0.99595141;stroke:#000000;stroke-opacity:1;stroke-width:0.99994009;stroke-miterlimit:4;stroke-dasharray:none">
      <g
         id="g146"
         style="fill:#000000;fill-opacity:0.99595141;stroke:#000000;stroke-opacity:1;stroke-width:0.99994009;stroke-miterlimit:4;stroke-dasharray:none">
        <path
           d="m 160.4,85.6 c 0,-33 -20.8,-62.4 -51.8,-73.4 V 8.5 c 0,-3.8 -3.1,-7 -7,-7 H 33.3 c -3.8,0 -7,3.1 -7,7 v 23.2 c -14,14.6 -21.8,33.7 -21.8,54 0,42.6 34.6,77.9 77.9,77.9 0,0 0,0 0,0 0,0 0,0 0,0 0,0 0,0 0,0 19.5,0 39,-7.3 54.1,-21.9 3.3,-0.2 5.9,-3 5.9,-6.3 v -0.1 c 11.7,-14 18,-31.6 18,-49.7 z m -1.9,0 c 0,16.8 -5.6,33.2 -15.9,46.5 v -27.3 c 0,-3.5 -2.8,-6.3 -6.3,-6.3 H 116.7 V 96 c 0,-1.1 0.9,-2 2,-2 h 14.6 c 2.1,0 3.9,-1.7 3.9,-3.9 0,-1 -0.4,-2 -1.1,-2.8 -0.7,-0.7 -1.7,-1.1 -2.7,-1.1 H 125 c -1.2,0 -2.1,-0.9 -2.1,-2.1 0,-0.6 0.2,-1.1 0.6,-1.5 0.4,-0.4 0.9,-0.6 1.5,-0.6 h 14 c 4.9,0 8.8,-4 8.8,-8.8 0,-2.4 -0.9,-4.6 -2.6,-6.3 -1.7,-1.7 -3.9,-2.6 -6.3,-2.6 h -30.4 c 0,-58.6 0,-48.8 0,-50.1 30,11 50,39.5 50,71.4 z M 108.6,98.5 V 66.3 H 139 c 1.8,0 3.6,0.7 4.9,2 1.3,1.3 2,3.1 2,4.9 0,3.8 -3.1,6.9 -6.9,6.9 h -14 c -1.1,0 -2.1,0.4 -2.8,1.2 -0.8,0.8 -1.2,1.8 -1.2,2.9 0,2.2 1.8,4 4,4 h 8.2 c 0.5,0 1,0.2 1.4,0.6 0.4,0.4 0.6,0.9 0.6,1.4 0,1.1 -0.9,2 -2,2 h -14.6 c -2.1,0 -3.9,1.7 -3.9,3.9 v 2.5 h -6.1 z m -55.1,0 c -3.5,0 -6.3,2.8 -6.3,6.3 V 115 H 33.3 c -2.8,0 -5,-2.3 -5,-5.1 v -94 h 78.4 V 98.5 Z M 33.3,3.4 h 68.3 c 2.8,0 5,2.3 5,5 v 5.5 H 28.3 V 8.5 c 0,-2.8 2.3,-5.1 5,-5.1 z M 6.5,85.6 c 0,-19.1 7,-37.1 19.8,-51.1 V 110 c 0,3.8 3.1,7 7,7 h 13.8 v 18.3 c 0,1.7 0.7,3.3 1.8,4.4 H 29.2 C 15.2,125.9 6.5,106.7 6.5,85.6 Z m 76,76 c 0,0 0,0 0,0 -19,0 -37.2,-7 -51.3,-20 h 22.3 80.3 c -13.7,12.6 -31.9,20 -51.3,20 z m 58.1,-26.4 c 0,2.4 -2,4.4 -4.4,4.4 H 53.5 c -2.4,0 -4.4,-2 -4.4,-4.4 V 116 c 0,0 0,0 0,0 0,0 0,0 0,0 v -11.2 c 0,-2.4 2,-4.4 4.4,-4.4 h 82.7 c 2.4,0 4.4,2 4.4,4.4 z"
           id="path144"
           style="fill:#000000;fill-opacity:0.99595141;stroke:#000000;stroke-opacity:1;stroke-width:0.99994009;stroke-miterlimit:4;stroke-dasharray:none" />
      </g>
      <g
         id="g150"
         style="fill:#000000;fill-opacity:0.99595141;stroke:#000000;stroke-opacity:1;stroke-width:0.99994009;stroke-miterlimit:4;stroke-dasharray:none">
        <path
           d="m 56,148.4 h 23.3 c 0.5,0 1,-0.4 1,-1 0,-0.5 -0.4,-1 -1,-1 H 56 c -0.5,0 -1,0.4 -1,1 0.1,0.5 0.5,1 1,1 z"
           id="path148"
           style="fill:#000000;fill-opacity:0.99595141;stroke:#000000;stroke-opacity:1;stroke-width:0.99994009;stroke-miterlimit:4;stroke-dasharray:none" />
      </g>
      <g
         id="g154"
         style="fill:#000000;fill-opacity:0.99595141;stroke:#000000;stroke-opacity:1;stroke-width:0.99994009;stroke-miterlimit:4;stroke-dasharray:none">
        <path
           d="m 83,148.4 h 3.8 c 0.5,0 1,-0.4 1,-1 0,-0.5 -0.4,-1 -1,-1 H 83 c -0.5,0 -1,0.4 -1,1 0.1,0.5 0.5,1 1,1 z"
           id="path152"
           style="fill:#000000;fill-opacity:0.99595141;stroke:#000000;stroke-opacity:1;stroke-width:0.99994009;stroke-miterlimit:4;stroke-dasharray:none" />
      </g>
      <g
         id="g158"
         style="fill:#000000;fill-opacity:0.99595141;stroke:#000000;stroke-opacity:1;stroke-width:0.99994009;stroke-miterlimit:4;stroke-dasharray:none">
        <path
           d="m 90.2,148.4 h 2.5 c 0.5,0 1,-0.4 1,-1 0,-0.5 -0.4,-1 -1,-1 h -2.5 c -0.5,0 -1,0.4 -1,1 0,0.5 0.4,1 1,1 z"
           id="path156"
           style="fill:#000000;fill-opacity:0.99595141;stroke:#000000;stroke-opacity:1;stroke-width:0.99994009;stroke-miterlimit:4;stroke-dasharray:none" />
      </g>
      <g
         id="g162"
         style="fill:#000000;fill-opacity:0.99595141;stroke:#000000;stroke-opacity:1;stroke-width:0.99994009;stroke-miterlimit:4;stroke-dasharray:none">
        <path
           d="m 84.7,152.1 c 0,0.5 0.4,1 1,1 H 109 c 0.5,0 1,-0.4 1,-1 0,-0.5 -0.4,-1 -1,-1 H 85.7 c -0.5,0.1 -1,0.5 -1,1 z"
           id="path160"
           style="fill:#000000;fill-opacity:0.99595141;stroke:#000000;stroke-opacity:1;stroke-width:0.99994009;stroke-miterlimit:4;stroke-dasharray:none" />
      </g>
      <g
         id="g166"
         style="fill:#000000;fill-opacity:0.99595141;stroke:#000000;stroke-opacity:1;stroke-width:0.99994009;stroke-miterlimit:4;stroke-dasharray:none">
        <path
           d="m 77.2,152.1 c 0,0.5 0.4,1 1,1 H 82 c 0.5,0 1,-0.4 1,-1 0,-0.5 -0.4,-1 -1,-1 h -3.8 c -0.6,0.1 -1,0.5 -1,1 z"
           id="path164"
           style="fill:#000000;fill-opacity:0.99595141;stroke:#000000;stroke-opacity:1;stroke-width:0.99994009;stroke-miterlimit:4;stroke-dasharray:none" />
      </g>
      <g
         id="g170"
         style="fill:#000000;fill-opacity:0.99595141;stroke:#000000;stroke-opacity:1;stroke-width:0.99994009;stroke-miterlimit:4;stroke-dasharray:none">
        <path
           d="m 74.8,151.2 h -2.5 c -0.5,0 -1,0.4 -1,1 0,0.5 0.4,1 1,1 h 2.5 c 0.5,0 1,-0.4 1,-1 0,-0.6 -0.4,-1 -1,-1 z"
           id="path168"
           style="fill:#000000;fill-opacity:0.99595141;stroke:#000000;stroke-opacity:1;stroke-width:0.99994009;stroke-miterlimit:4;stroke-dasharray:none" />
      </g>
      <g
         id="g174"
         style="fill:#000000;fill-opacity:0.99595141;stroke:#000000;stroke-opacity:1;stroke-width:0.99994009;stroke-miterlimit:4;stroke-dasharray:none">
        <path
           d="m 101.7,19.8 h -4.4 c -1.1,0 -2,0.9 -2,2 v 4.4 c 0,1.1 0.9,2 2,2 h 4.4 c 1.1,0 2,-0.9 2,-2 v -4.4 c 0,-1.1 -0.9,-2 -2,-2 z m 0.1,6.4 c 0,0.1 -0.1,0.1 -0.1,0.1 h -4.4 c -0.1,0 -0.1,-0.1 -0.1,-0.1 v -4.4 c 0,-0.1 0.1,-0.1 0.1,-0.1 h 4.4 c 0.1,0 0.1,0.1 0.1,0.1 z"
           id="path172"
           style="fill:#000000;fill-opacity:0.99595141;stroke:#000000;stroke-opacity:1;stroke-width:0.99994009;stroke-miterlimit:4;stroke-dasharray:none" />
      </g>
      <g
         id="g178"
         style="fill:#000000;fill-opacity:0.99595141;stroke:#000000;stroke-opacity:1;stroke-width:0.99994009;stroke-miterlimit:4;stroke-dasharray:none">
        <path
           d="m 101.7,31.9 h -4.4 c -1.1,0 -2,0.9 -2,2 v 4.4 c 0,1.1 0.9,2 2,2 h 4.4 c 1.1,0 2,-0.9 2,-2 V 34 c 0,-1.2 -0.9,-2.1 -2,-2.1 z m 0.1,6.4 c 0,0.1 -0.1,0.1 -0.1,0.1 h -4.4 c -0.1,0 -0.1,-0.1 -0.1,-0.1 V 34 c 0,-0.1 0.1,-0.1 0.1,-0.1 h 4.4 c 0.1,0 0.1,0.1 0.1,0.1 z"
           id="path176"
           style="fill:#000000;fill-opacity:0.99595141;stroke:#000000;stroke-opacity:1;stroke-width:0.99994009;stroke-miterlimit:4;stroke-dasharray:none" />
      </g>
      <g
         id="g182"
         style="fill:#000000;fill-opacity:0.99595141;stroke:#000000;stroke-opacity:1;stroke-width:0.99994009;stroke-miterlimit:4;stroke-dasharray:none">
        <path
           d="m 101.7,44 h -4.4 c -1.1,0 -2,0.9 -2,2 v 4.4 c 0,1.1 0.9,2 2,2 h 4.4 c 1.1,0 2,-0.9 2,-2 V 46 c 0,-1.1 -0.9,-2 -2,-2 z m 0.1,6.4 c 0,0.1 -0.1,0.1 -0.1,0.1 h -4.4 c -0.1,0 -0.1,-0.1 -0.1,-0.1 V 46 c 0,-0.1 0.1,-0.1 0.1,-0.1 h 4.4 c 0.1,0 0.1,0.1 0.1,0.1 z"
           id="path180"
           style="fill:#000000;fill-opacity:0.99595141;stroke:#000000;stroke-opacity:1;stroke-width:0.99994009;stroke-miterlimit:4;stroke-dasharray:none" />
      </g>
      <g
         id="g186"
         style="fill:#000000;fill-opacity:0.99595141;stroke:#000000;stroke-opacity:1;stroke-width:0.99994009;stroke-miterlimit:4;stroke-dasharray:none">
        <path
           d="m 101.7,56.1 h -4.4 c -1.1,0 -2,0.9 -2,2 v 4.4 c 0,1.1 0.9,2 2,2 h 4.4 c 1.1,0 2,-0.9 2,-2 v -4.4 c 0,-1.1 -0.9,-2 -2,-2 z m 0.1,6.4 c 0,0.1 -0.1,0.1 -0.1,0.1 h -4.4 c -0.1,0 -0.1,-0.1 -0.1,-0.1 V 58.1 C 97.2,58 97.3,58 97.3,58 h 4.4 c 0.1,0 0.1,0.1 0.1,0.1 z"
           id="path184"
           style="fill:#000000;fill-opacity:0.99595141;stroke:#000000;stroke-opacity:1;stroke-width:0.99994009;stroke-miterlimit:4;stroke-dasharray:none" />
      </g>
      <g
         id="g190"
         style="fill:#000000;fill-opacity:0.99595141;stroke:#000000;stroke-opacity:1;stroke-width:0.99994009;stroke-miterlimit:4;stroke-dasharray:none">
        <path
           d="m 101.7,68.2 h -4.4 c -1.1,0 -2,0.9 -2,2 v 4.4 c 0,1.1 0.9,2 2,2 h 4.4 c 1.1,0 2,-0.9 2,-2 v -4.4 c 0,-1.1 -0.9,-2 -2,-2 z m 0.1,6.4 c 0,0.1 -0.1,0.1 -0.1,0.1 h -4.4 c -0.1,0 -0.1,-0.1 -0.1,-0.1 v -4.4 c 0,-0.1 0.1,-0.1 0.1,-0.1 h 4.4 c 0.1,0 0.1,0.1 0.1,0.1 z"
           id="path188"
           style="fill:#000000;fill-opacity:0.99595141;stroke:#000000;stroke-opacity:1;stroke-width:0.99994009;stroke-miterlimit:4;stroke-dasharray:none" />
      </g>
      <g
         id="g194"
         style="fill:#000000;fill-opacity:0.99595141;stroke:#000000;stroke-opacity:1;stroke-width:0.99994009;stroke-miterlimit:4;stroke-dasharray:none">
        <path
           d="M 87.7,53.6 84,53.8 C 83,46.3 76.7,40.5 69.2,40.1 V 26.8 c 0,-0.5 -0.4,-1 -1,-1 H 39 c -0.5,0 -1,0.4 -1,1 V 56 c 0,0.5 0.4,1 1,1 h 13.3 c 0.5,8.4 7.4,15 15.9,15 2.9,0 5.7,-0.8 8.2,-2.3 1.8,2.6 2,3.3 2.8,3.3 0.4,0 0.7,-0.2 0.9,-0.5 l 8.5,-17.6 c 0.2,-0.3 0.1,-0.7 -0.1,-1 C 88.3,53.7 88,53.5 87.7,53.6 Z M 40,27.8 h 27.3 v 12.3 c -8,0.5 -14.5,7 -15,15 H 40 Z m 35.3,40.3 c -2.2,1.3 -4.6,1.9 -7.1,1.9 -7.7,0 -14,-6.3 -14,-14 0,-7.7 6.3,-14 14,-14 7,0 12.9,5.2 13.9,12 l -14,1 c -0.3,0 -0.6,0.2 -0.8,0.5 -0.2,0.3 -0.1,0.7 0.1,1 z m 3.8,2.1 -1.6,-2.3 c 0,0 0,0 0,0 L 70,56.7 83.3,55.8 c 0,0 0,0 0,0 l 2.9,-0.2 z"
           id="path192"
           style="fill:#000000;fill-opacity:0.99595141;stroke:#000000;stroke-opacity:1;stroke-width:0.99994009;stroke-miterlimit:4;stroke-dasharray:none" />
      </g>
      <g
         id="g198"
         style="fill:#000000;fill-opacity:0.99595141;stroke:#000000;stroke-opacity:1;stroke-width:0.99994009;stroke-miterlimit:4;stroke-dasharray:none">
        <path
           d="m 55.5,75.6 -11.1,3.6 c -0.4,0.1 -0.6,0.5 -0.7,0.9 0,0.4 0.2,0.8 0.6,0.9 l 1.6,0.7 -3.5,3.5 c -0.2,0.2 -0.3,0.4 -0.3,0.7 0,0.3 0.1,0.5 0.3,0.7 l 3.3,3.3 c 0.2,0.2 0.4,0.3 0.7,0.3 0.2,0 0.5,-0.1 0.7,-0.3 l 3.5,-3.5 0.7,1.6 c 0.2,0.4 0.5,0.6 0.9,0.6 0.4,0 0.8,-0.3 0.9,-0.7 l 3.6,-11.1 c 0.1,-0.3 0,-0.7 -0.2,-1 -0.3,-0.2 -0.7,-0.3 -1,-0.2 z m -3.4,9.3 -0.2,-0.5 c -0.1,-0.3 -0.4,-0.5 -0.7,-0.6 -0.3,-0.1 -0.6,0 -0.9,0.3 L 46.5,87.9 44.6,86 48.4,82.2 C 48.6,82 48.7,81.6 48.7,81.3 48.6,81 48.4,80.7 48.1,80.6 l -0.5,-0.2 6.8,-2.2 z"
           id="path196"
           style="fill:#000000;fill-opacity:0.99595141;stroke:#000000;stroke-opacity:1;stroke-width:0.99994009;stroke-miterlimit:4;stroke-dasharray:none" />
      </g>
      <g
         id="g202"
         style="fill:#000000;fill-opacity:0.99595141;stroke:#000000;stroke-opacity:1;stroke-width:0.99994009;stroke-miterlimit:4;stroke-dasharray:none">
        <path
           d="m 34.8,11.9 c 1.8,0 3.2,-1.4 3.2,-3.2 0,-1.8 -1.4,-3.2 -3.2,-3.2 -1.8,0 -3.2,1.4 -3.2,3.2 0,1.8 1.4,3.2 3.2,3.2 z m 0,-4.5 c 0.7,0 1.3,0.6 1.3,1.3 0,0.7 -0.6,1.3 -1.3,1.3 -0.7,0 -1.3,-0.6 -1.3,-1.3 0,-0.7 0.6,-1.3 1.3,-1.3 z"
           id="path200"
           style="fill:#000000;fill-opacity:0.99595141;stroke:#000000;stroke-opacity:1;stroke-width:0.99994009;stroke-miterlimit:4;stroke-dasharray:none" />
      </g>
      <g
         id="g206"
         style="fill:#000000;fill-opacity:0.99595141;stroke:#000000;stroke-opacity:1;stroke-width:0.99994009;stroke-miterlimit:4;stroke-dasharray:none">
        <path
           d="m 42.8,11.9 c 1.8,0 3.2,-1.4 3.2,-3.2 0,-1.8 -1.4,-3.2 -3.2,-3.2 -1.8,0 -3.2,1.4 -3.2,3.2 -0.1,1.8 1.4,3.2 3.2,3.2 z m 0,-4.5 c 0.7,0 1.3,0.6 1.3,1.3 0,0.7 -0.6,1.3 -1.3,1.3 -0.7,0 -1.3,-0.6 -1.3,-1.3 0,-0.7 0.6,-1.3 1.3,-1.3 z"
           id="path204"
           style="fill:#000000;fill-opacity:0.99595141;stroke:#000000;stroke-opacity:1;stroke-width:0.99994009;stroke-miterlimit:4;stroke-dasharray:none" />
      </g>
      <g
         id="g210"
         style="fill:#000000;fill-opacity:0.99595141;stroke:#000000;stroke-opacity:1;stroke-width:0.99994009;stroke-miterlimit:4;stroke-dasharray:none">
        <path
           d="m 50.7,11.9 c 1.8,0 3.2,-1.4 3.2,-3.2 0,-1.8 -1.4,-3.2 -3.2,-3.2 -1.8,0 -3.2,1.4 -3.2,3.2 0,1.8 1.5,3.2 3.2,3.2 z m 0,-4.5 C 51.4,7.4 52,8 52,8.7 52,9.4 51.4,10 50.7,10 50,10 49.4,9.4 49.4,8.7 49.4,8 50,7.4 50.7,7.4 Z"
           id="path208"
           style="fill:#000000;fill-opacity:0.99595141;stroke:#000000;stroke-opacity:1;stroke-width:0.99994009;stroke-miterlimit:4;stroke-dasharray:none" />
      </g>
      <g
         id="g214"
         style="fill:#000000;fill-opacity:0.99595141;stroke:#000000;stroke-opacity:1;stroke-width:0.99994009;stroke-miterlimit:4;stroke-dasharray:none">
        <path
           d="m 60.3,11.9 h 39.8 c 1.8,0 3.2,-1.4 3.2,-3.2 0,-1.8 -1.4,-3.2 -3.2,-3.2 H 60.3 c -1.8,0 -3.2,1.4 -3.2,3.2 0,1.8 1.4,3.2 3.2,3.2 z m 0,-4.5 h 39.8 c 0.7,0 1.3,0.6 1.3,1.3 0,0.7 -0.6,1.3 -1.3,1.3 H 60.3 C 59.6,10 59,9.4 59,8.7 59,8 59.6,7.4 60.3,7.4 Z"
           id="path212"
           style="fill:#000000;fill-opacity:0.99595141;stroke:#000000;stroke-opacity:1;stroke-width:0.99994009;stroke-miterlimit:4;stroke-dasharray:none" />
      </g>
      <g
         id="g218"
         style="fill:#000000;fill-opacity:0.99595141;stroke:#000000;stroke-opacity:1;stroke-width:0.99994009;stroke-miterlimit:4;stroke-dasharray:none">
        <path
           d="M 59.8,105.3 H 55 c -0.5,0 -1,0.4 -1,1 v 4.8 c 0,0.5 0.4,1 1,1 h 4.8 c 0.5,0 1,-0.4 1,-1 v -4.8 c -0.1,-0.5 -0.5,-1 -1,-1 z m -1,4.8 h -2.9 v -2.9 h 2.9 z"
           id="path216"
           style="fill:#000000;fill-opacity:0.99595141;stroke:#000000;stroke-opacity:1;stroke-width:0.99994009;stroke-miterlimit:4;stroke-dasharray:none" />
      </g>
      <g
         id="g222"
         style="fill:#000000;fill-opacity:0.99595141;stroke:#000000;stroke-opacity:1;stroke-width:0.99994009;stroke-miterlimit:4;stroke-dasharray:none">
        <path
           d="m 64.3,112.1 h 4.8 c 0.5,0 1,-0.4 1,-1 v -4.8 c 0,-0.5 -0.4,-1 -1,-1 h -4.8 c -0.5,0 -1,0.4 -1,1 v 4.8 c 0.1,0.5 0.5,1 1,1 z m 1,-4.8 h 2.9 v 2.9 h -2.9 z"
           id="path220"
           style="fill:#000000;fill-opacity:0.99595141;stroke:#000000;stroke-opacity:1;stroke-width:0.99994009;stroke-miterlimit:4;stroke-dasharray:none" />
      </g>
      <g
         id="g226"
         style="fill:#000000;fill-opacity:0.99595141;stroke:#000000;stroke-opacity:1;stroke-width:0.99994009;stroke-miterlimit:4;stroke-dasharray:none">
        <path
           d="m 73.7,112.1 h 4.8 c 0.5,0 1,-0.4 1,-1 v -4.8 c 0,-0.5 -0.4,-1 -1,-1 h -4.8 c -0.5,0 -1,0.4 -1,1 v 4.8 c 0,0.5 0.5,1 1,1 z m 1,-4.8 h 2.9 v 2.9 h -2.9 z"
           id="path224"
           style="fill:#000000;fill-opacity:0.99595141;stroke:#000000;stroke-opacity:1;stroke-width:0.99994009;stroke-miterlimit:4;stroke-dasharray:none" />
      </g>
      <g
         id="g230"
         style="fill:#000000;fill-opacity:0.99595141;stroke:#000000;stroke-opacity:1;stroke-width:0.99994009;stroke-miterlimit:4;stroke-dasharray:none">
        <path
           d="m 83.1,112.1 h 4.8 c 0.5,0 1,-0.4 1,-1 v -4.8 c 0,-0.5 -0.4,-1 -1,-1 h -4.8 c -0.5,0 -1,0.4 -1,1 v 4.8 c 0,0.5 0.5,1 1,1 z m 0.9,-4.8 h 2.9 v 2.9 H 84 Z"
           id="path228"
           style="fill:#000000;fill-opacity:0.99595141;stroke:#000000;stroke-opacity:1;stroke-width:0.99994009;stroke-miterlimit:4;stroke-dasharray:none" />
      </g>
      <g
         id="g234"
         style="fill:#000000;fill-opacity:0.99595141;stroke:#000000;stroke-opacity:1;stroke-width:0.99994009;stroke-miterlimit:4;stroke-dasharray:none">
        <path
           d="m 97.3,105.3 h -4.8 c -0.5,0 -1,0.4 -1,1 v 4.8 c 0,0.5 0.4,1 1,1 h 4.8 c 0.5,0 1,-0.4 1,-1 v -4.8 c -0.1,-0.5 -0.5,-1 -1,-1 z m -1,4.8 h -2.9 v -2.9 h 2.9 z"
           id="path232"
           style="fill:#000000;fill-opacity:0.99595141;stroke:#000000;stroke-opacity:1;stroke-width:0.99994009;stroke-miterlimit:4;stroke-dasharray:none" />
      </g>
      <g
         id="g238"
         style="fill:#000000;fill-opacity:0.99595141;stroke:#000000;stroke-opacity:1;stroke-width:0.99994009;stroke-miterlimit:4;stroke-dasharray:none">
        <path
           d="m 106.6,105.3 h -4.8 c -0.5,0 -1,0.4 -1,1 v 4.8 c 0,0.5 0.4,1 1,1 h 4.8 c 0.5,0 1,-0.4 1,-1 v -4.8 c 0,-0.5 -0.4,-1 -1,-1 z m -0.9,4.8 h -2.9 v -2.9 h 2.9 z"
           id="path236"
           style="fill:#000000;fill-opacity:0.99595141;stroke:#000000;stroke-opacity:1;stroke-width:0.99994009;stroke-miterlimit:4;stroke-dasharray:none" />
      </g>
      <g
         id="g242"
         style="fill:#000000;fill-opacity:0.99595141;stroke:#000000;stroke-opacity:1;stroke-width:0.99994009;stroke-miterlimit:4;stroke-dasharray:none">
        <path
           d="m 116,105.3 h -4.8 c -0.5,0 -1,0.4 -1,1 v 4.8 c 0,0.5 0.4,1 1,1 h 4.8 c 0.5,0 1,-0.4 1,-1 v -4.8 c 0,-0.5 -0.5,-1 -1,-1 z m -0.9,4.8 h -2.9 v -2.9 h 2.9 z"
           id="path240"
           style="fill:#000000;fill-opacity:0.99595141;stroke:#000000;stroke-opacity:1;stroke-width:0.99994009;stroke-miterlimit:4;stroke-dasharray:none" />
      </g>
      <g
         id="g246"
         style="fill:#000000;fill-opacity:0.99595141;stroke:#000000;stroke-opacity:1;stroke-width:0.99994009;stroke-miterlimit:4;stroke-dasharray:none">
        <path
           d="m 125.4,105.3 h -4.8 c -0.5,0 -1,0.4 -1,1 v 4.8 c 0,0.5 0.4,1 1,1 h 4.8 c 0.5,0 1,-0.4 1,-1 v -4.8 c 0,-0.5 -0.5,-1 -1,-1 z m -1,4.8 h -2.9 v -2.9 h 2.9 z"
           id="path244"
           style="fill:#000000;fill-opacity:0.99595141;stroke:#000000;stroke-opacity:1;stroke-width:0.99994009;stroke-miterlimit:4;stroke-dasharray:none" />
      </g>
      <g
         id="g250"
         style="fill:#000000;fill-opacity:0.99595141;stroke:#000000;stroke-opacity:1;stroke-width:0.99994009;stroke-miterlimit:4;stroke-dasharray:none">
        <path
           d="M 134.8,105.3 H 130 c -0.5,0 -1,0.4 -1,1 v 4.8 c 0,0.5 0.4,1 1,1 h 4.8 c 0.5,0 1,-0.4 1,-1 v -4.8 c -0.1,-0.5 -0.5,-1 -1,-1 z m -1,4.8 h -2.9 v -2.9 h 2.9 z"
           id="path248"
           style="fill:#000000;fill-opacity:0.99595141;stroke:#000000;stroke-opacity:1;stroke-width:0.99994009;stroke-miterlimit:4;stroke-dasharray:none" />
      </g>
      <g
         id="g254"
         style="fill:#000000;fill-opacity:0.99595141;stroke:#000000;stroke-opacity:1;stroke-width:0.99994009;stroke-miterlimit:4;stroke-dasharray:none">
        <path
           d="M 59.8,114.6 H 55 c -0.5,0 -1,0.4 -1,1 v 4.8 c 0,0.5 0.4,1 1,1 h 4.8 c 0.5,0 1,-0.4 1,-1 v -4.8 c -0.1,-0.6 -0.5,-1 -1,-1 z m -1,4.8 h -2.9 v -2.9 h 2.9 z"
           id="path252"
           style="fill:#000000;fill-opacity:0.99595141;stroke:#000000;stroke-opacity:1;stroke-width:0.99994009;stroke-miterlimit:4;stroke-dasharray:none" />
      </g>
      <g
         id="g258"
         style="fill:#000000;fill-opacity:0.99595141;stroke:#000000;stroke-opacity:1;stroke-width:0.99994009;stroke-miterlimit:4;stroke-dasharray:none">
        <path
           d="m 64.3,121.3 h 4.8 c 0.5,0 1,-0.4 1,-1 v -4.8 c 0,-0.5 -0.4,-1 -1,-1 h -4.8 c -0.5,0 -1,0.4 -1,1 v 4.8 c 0.1,0.6 0.5,1 1,1 z m 1,-4.8 h 2.9 v 2.9 h -2.9 z"
           id="path256"
           style="fill:#000000;fill-opacity:0.99595141;stroke:#000000;stroke-opacity:1;stroke-width:0.99994009;stroke-miterlimit:4;stroke-dasharray:none" />
      </g>
      <g
         id="g262"
         style="fill:#000000;fill-opacity:0.99595141;stroke:#000000;stroke-opacity:1;stroke-width:0.99994009;stroke-miterlimit:4;stroke-dasharray:none">
        <path
           d="m 73.7,121.3 h 4.8 c 0.5,0 1,-0.4 1,-1 v -4.8 c 0,-0.5 -0.4,-1 -1,-1 h -4.8 c -0.5,0 -1,0.4 -1,1 v 4.8 c 0,0.6 0.5,1 1,1 z m 1,-4.8 h 2.9 v 2.9 h -2.9 z"
           id="path260"
           style="fill:#000000;fill-opacity:0.99595141;stroke:#000000;stroke-opacity:1;stroke-width:0.99994009;stroke-miterlimit:4;stroke-dasharray:none" />
      </g>
      <g
         id="g266"
         style="fill:#000000;fill-opacity:0.99595141;stroke:#000000;stroke-opacity:1;stroke-width:0.99994009;stroke-miterlimit:4;stroke-dasharray:none">
        <path
           d="m 83.1,121.3 h 4.8 c 0.5,0 1,-0.4 1,-1 v -4.8 c 0,-0.5 -0.4,-1 -1,-1 h -4.8 c -0.5,0 -1,0.4 -1,1 v 4.8 c 0,0.6 0.5,1 1,1 z m 0.9,-4.8 h 2.9 v 2.9 H 84 Z"
           id="path264"
           style="fill:#000000;fill-opacity:0.99595141;stroke:#000000;stroke-opacity:1;stroke-width:0.99994009;stroke-miterlimit:4;stroke-dasharray:none" />
      </g>
      <g
         id="g270"
         style="fill:#000000;fill-opacity:0.99595141;stroke:#000000;stroke-opacity:1;stroke-width:0.99994009;stroke-miterlimit:4;stroke-dasharray:none">
        <path
           d="m 97.3,114.6 h -4.8 c -0.5,0 -1,0.4 -1,1 v 4.8 c 0,0.5 0.4,1 1,1 h 4.8 c 0.5,0 1,-0.4 1,-1 v -4.8 c -0.1,-0.6 -0.5,-1 -1,-1 z m -1,4.8 h -2.9 v -2.9 h 2.9 z"
           id="path268"
           style="fill:#000000;fill-opacity:0.99595141;stroke:#000000;stroke-opacity:1;stroke-width:0.99994009;stroke-miterlimit:4;stroke-dasharray:none" />
      </g>
      <g
         id="g274"
         style="fill:#000000;fill-opacity:0.99595141;stroke:#000000;stroke-opacity:1;stroke-width:0.99994009;stroke-miterlimit:4;stroke-dasharray:none">
        <path
           d="m 106.6,114.6 h -4.8 c -0.5,0 -1,0.4 -1,1 v 4.8 c 0,0.5 0.4,1 1,1 h 4.8 c 0.5,0 1,-0.4 1,-1 v -4.8 c 0,-0.6 -0.4,-1 -1,-1 z m -0.9,4.8 h -2.9 v -2.9 h 2.9 z"
           id="path272"
           style="fill:#000000;fill-opacity:0.99595141;stroke:#000000;stroke-opacity:1;stroke-width:0.99994009;stroke-miterlimit:4;stroke-dasharray:none" />
      </g>
      <g
         id="g278"
         style="fill:#000000;fill-opacity:0.99595141;stroke:#000000;stroke-opacity:1;stroke-width:0.99994009;stroke-miterlimit:4;stroke-dasharray:none">
        <path
           d="m 116,114.6 h -4.8 c -0.5,0 -1,0.4 -1,1 v 4.8 c 0,0.5 0.4,1 1,1 h 4.8 c 0.5,0 1,-0.4 1,-1 v -4.8 c 0,-0.6 -0.5,-1 -1,-1 z m -0.9,4.8 h -2.9 v -2.9 h 2.9 z"
           id="path276"
           style="fill:#000000;fill-opacity:0.99595141;stroke:#000000;stroke-opacity:1;stroke-width:0.99994009;stroke-miterlimit:4;stroke-dasharray:none" />
      </g>
      <g
         id="g282"
         style="fill:#000000;fill-opacity:0.99595141;stroke:#000000;stroke-opacity:1;stroke-width:0.99994009;stroke-miterlimit:4;stroke-dasharray:none">
        <path
           d="m 125.4,114.6 h -4.8 c -0.5,0 -1,0.4 -1,1 v 4.8 c 0,0.5 0.4,1 1,1 h 4.8 c 0.5,0 1,-0.4 1,-1 v -4.8 c 0,-0.6 -0.5,-1 -1,-1 z m -1,4.8 h -2.9 v -2.9 h 2.9 z"
           id="path280"
           style="fill:#000000;fill-opacity:0.99595141;stroke:#000000;stroke-opacity:1;stroke-width:0.99994009;stroke-miterlimit:4;stroke-dasharray:none" />
      </g>
      <g
         id="g286"
         style="fill:#000000;fill-opacity:0.99595141;stroke:#000000;stroke-opacity:1;stroke-width:0.99994009;stroke-miterlimit:4;stroke-dasharray:none">
        <path
           d="M 134.8,114.6 H 130 c -0.5,0 -1,0.4 -1,1 v 4.8 c 0,0.5 0.4,1 1,1 h 4.8 c 0.5,0 1,-0.4 1,-1 v -4.8 c -0.1,-0.6 -0.5,-1 -1,-1 z m -1,4.8 h -2.9 v -2.9 h 2.9 z"
           id="path284"
           style="fill:#000000;fill-opacity:0.99595141;stroke:#000000;stroke-opacity:1;stroke-width:0.99994009;stroke-miterlimit:4;stroke-dasharray:none" />
      </g>
      <g
         id="g290"
         style="fill:#000000;fill-opacity:0.99595141;stroke:#000000;stroke-opacity:1;stroke-width:0.99994009;stroke-miterlimit:4;stroke-dasharray:none">
        <path
           d="M 59.8,123.8 H 55 c -0.5,0 -1,0.4 -1,1 v 4.8 c 0,0.5 0.4,1 1,1 h 4.8 c 0.5,0 1,-0.4 1,-1 v -4.8 c -0.1,-0.6 -0.5,-1 -1,-1 z m -1,4.8 h -2.9 v -2.9 h 2.9 z"
           id="path288"
           style="fill:#000000;fill-opacity:0.99595141;stroke:#000000;stroke-opacity:1;stroke-width:0.99994009;stroke-miterlimit:4;stroke-dasharray:none" />
      </g>
      <g
         id="g294"
         style="fill:#000000;fill-opacity:0.99595141;stroke:#000000;stroke-opacity:1;stroke-width:0.99994009;stroke-miterlimit:4;stroke-dasharray:none">
        <path
           d="m 97.3,123.8 h -33 c -0.5,0 -1,0.4 -1,1 v 4.8 c 0,0.5 0.4,1 1,1 h 32.9 c 0.5,0 1,-0.4 1,-1 v -4.8 c 0,-0.6 -0.4,-1 -0.9,-1 z m -1,4.8 h -31 v -2.9 h 31 z"
           id="path292"
           style="fill:#000000;fill-opacity:0.99595141;stroke:#000000;stroke-opacity:1;stroke-width:0.99994009;stroke-miterlimit:4;stroke-dasharray:none" />
      </g>
      <g
         id="g298"
         style="fill:#000000;fill-opacity:0.99595141;stroke:#000000;stroke-opacity:1;stroke-width:0.99994009;stroke-miterlimit:4;stroke-dasharray:none">
        <path
           d="m 106.6,123.8 h -4.8 c -0.5,0 -1,0.4 -1,1 v 4.8 c 0,0.5 0.4,1 1,1 h 4.8 c 0.5,0 1,-0.4 1,-1 v -4.8 c 0,-0.6 -0.4,-1 -1,-1 z m -0.9,4.8 h -2.9 v -2.9 h 2.9 z"
           id="path296"
           style="fill:#000000;fill-opacity:0.99595141;stroke:#000000;stroke-opacity:1;stroke-width:0.99994009;stroke-miterlimit:4;stroke-dasharray:none" />
      </g>
      <g
         id="g302"
         style="fill:#000000;fill-opacity:0.99595141;stroke:#000000;stroke-opacity:1;stroke-width:0.99994009;stroke-miterlimit:4;stroke-dasharray:none">
        <path
           d="m 116,123.8 h -4.8 c -0.5,0 -1,0.4 -1,1 v 4.8 c 0,0.5 0.4,1 1,1 h 4.8 c 0.5,0 1,-0.4 1,-1 v -4.8 c 0,-0.6 -0.5,-1 -1,-1 z m -0.9,4.8 h -2.9 v -2.9 h 2.9 z"
           id="path300"
           style="fill:#000000;fill-opacity:0.99595141;stroke:#000000;stroke-opacity:1;stroke-width:0.99994009;stroke-miterlimit:4;stroke-dasharray:none" />
      </g>
      <g
         id="g306"
         style="fill:#000000;fill-opacity:0.99595141;stroke:#000000;stroke-opacity:1;stroke-width:0.99994009;stroke-miterlimit:4;stroke-dasharray:none">
        <path
           d="m 125.4,123.8 h -4.8 c -0.5,0 -1,0.4 -1,1 v 4.8 c 0,0.5 0.4,1 1,1 h 4.8 c 0.5,0 1,-0.4 1,-1 v -4.8 c 0,-0.6 -0.5,-1 -1,-1 z m -1,4.8 h -2.9 v -2.9 h 2.9 z"
           id="path304"
           style="fill:#000000;fill-opacity:0.99595141;stroke:#000000;stroke-opacity:1;stroke-width:0.99994009;stroke-miterlimit:4;stroke-dasharray:none" />
      </g>
      <g
         id="g310"
         style="fill:#000000;fill-opacity:0.99595141;stroke:#000000;stroke-opacity:1;stroke-width:0.99994009;stroke-miterlimit:4;stroke-dasharray:none">
        <path
           d="M 134.8,123.8 H 130 c -0.5,0 -1,0.4 -1,1 v 4.8 c 0,0.5 0.4,1 1,1 h 4.8 c 0.5,0 1,-0.4 1,-1 v -4.8 c -0.1,-0.6 -0.5,-1 -1,-1 z m -1,4.8 h -2.9 v -2.9 h 2.9 z"
           id="path308"
           style="fill:#000000;fill-opacity:0.99595141;stroke:#000000;stroke-opacity:1;stroke-width:0.99994009;stroke-miterlimit:4;stroke-dasharray:none" />
      </g>
    </g>
    <path
       style="fill:#e8491d;fill-opacity:1;stroke:#000000;stroke-width:1.58997;stroke-opacity:1"
       d="m 313.22433,497.0369 c -34.97241,-7.78868 -58.79327,-42.28698 -52.91095,-76.62773 6.25588,-36.52161 41.73022,-62.72556 76.60107,-56.58318 22.17604,3.90623 40.26373,17.33176 50.25379,37.30071 7.32987,14.65156 7.27327,17.02268 -0.40774,17.08102 -3.27932,0.0249 -19.17744,1.05566 -35.32916,2.29055 -24.45986,1.8701 -29.70682,2.71031 -31.40193,5.02851 -1.11934,1.5308 -2.03516,3.7145 -2.03516,4.85269 0,1.13818 8.98236,15.33148 19.96081,31.54066 l 19.96082,29.47123 -5.73793,2.39746 c -6.65919,2.78238 -20.0504,5.52139 -26.05337,5.32889 -2.28547,-0.0733 -8.09059,-1.00965 -12.90025,-2.08081 z"
       id="path9327"
       transform="scale(0.26458333)" />
    <path
       style="fill:#35424a;fill-opacity:1;stroke:#000000;stroke-width:1.58997;stroke-opacity:1"
       d="m 142.2236,725.97037 c -2.66681,-1.16159 -6.78086,-4.40817 -9.14234,-7.21462 l -4.29359,-5.10265 V 472.09946 230.54583 h 194.77147 194.77148 v 206.69626 206.69626 l -135.54505,0.01 c -83.04009,0.005 -137.70067,0.60865 -141.10994,1.55728 -7.77817,2.16427 -17.35737,10.52812 -20.84005,18.19601 -2.51077,5.52801 -2.94478,10.70609 -2.9746,35.48933 l -0.0349,29.01631 -35.37686,-0.0622 c -25.80282,-0.0454 -36.68908,-0.63381 -40.2256,-2.17422 z m 78.68985,-119.34849 c 2.48569,-1.2854 6.86264,-5.29562 9.72655,-8.9116 l 5.20711,-6.57451 2.21728,4.23183 c 1.88317,3.59416 3.10094,4.15835 8.08166,3.74419 l 5.86439,-0.48762 9.78246,-29.41447 c 10.19852,-30.66547 11.35897,-36.25653 8.18421,-39.43129 -3.22582,-3.22583 -8.47993,-2.23392 -38.19088,7.20992 -31.1723,9.90833 -34.57542,12.07573 -31.53145,20.08197 0.87607,2.30425 2.6838,4.18954 4.01717,4.18954 3.77654,0 3.00515,1.46356 -5.52555,10.48351 -4.37242,4.62319 -7.94985,9.64879 -7.94985,11.16802 0,2.61531 21.98737,26.04761 24.44142,26.04761 0.63582,0 3.18978,-1.05169 5.67548,-2.3371 z m 282.06231,-69.38693 c 5.69524,-2.59493 7.405,-7.919 7.405,-23.05859 0,-21.99635 -2.41548,-24.34454 -25.11431,-24.41466 -15.2939,-0.0472 -16.62591,0.20587 -20.27213,3.8521 -3.65224,3.65223 -3.90266,4.98315 -3.90266,20.74189 0,15.75875 0.25042,17.08966 3.90266,20.74189 3.59572,3.59574 5.09037,3.90267 19.00483,3.90267 8.3062,0 16.84568,-0.79439 18.97661,-1.7653 z M 389.10509,517.93313 c 3.11869,-4.02099 44.9648,-92.7044 44.961,-95.28471 -0.008,-5.59824 -4.7198,-7.9613 -14.75606,-7.40088 l -9.49019,0.52994 -2.21515,-8.57849 c -7.19626,-27.86851 -34.14217,-53.09194 -62.97843,-58.95262 l -9.14233,-1.85809 v -33.54897 c 0,-28.98642 -0.35786,-33.9444 -2.63139,-36.45661 -2.48073,-2.7412 -7.07214,-2.90765 -80.20338,-2.90765 h -77.57201 l -2.47511,3.53372 c -2.15708,3.07965 -2.47512,13.38245 -2.47512,80.17998 0,67.55845 0.29625,76.94249 2.49853,79.14478 2.11497,2.11498 7.69703,2.49853 36.36247,2.49853 h 33.86395 l 1.86899,9.49987 c 3.03324,15.41768 12.92639,33.23477 24.42735,43.9925 26.09185,24.40569 59.94513,29.40364 96.54517,14.25349 1.64532,-0.68107 3.78623,1.23479 6.90337,6.17772 3.8612,6.12276 5.27832,7.16495 9.74264,7.16495 2.87332,0 5.91789,-0.89436 6.7657,-1.98746 z m 116.72712,-43.97846 c 3.4419,-2.78455 3.79853,-4.43296 4.29516,-19.85285 l 0.54159,-16.81614 -4.79171,-4.79171 c -4.62892,-4.62893 -5.28467,-4.79171 -19.30271,-4.79171 -15.0819,0 -22.56998,2.20898 -24.49523,7.2261 -0.54321,1.4156 -0.98765,9.70269 -0.98765,18.41575 0,14.69989 0.28134,16.12329 3.90266,19.74459 3.64488,3.6449 4.99849,3.90267 20.49347,3.90267 13.95977,0 17.1861,-0.48157 20.34442,-3.0367 z m 0.72469,-62.31905 c 2.58739,-2.85903 3.02888,-5.86538 3.02888,-20.62546 0,-15.85837 -0.29755,-17.57627 -3.62003,-20.90019 -3.30275,-3.30418 -5.068,-3.6216 -20.14028,-3.6216 -15.29473,0 -16.82488,0.28594 -20.62703,3.85459 -3.89492,3.65573 -4.10678,4.69051 -4.10678,20.05772 0,13.98472 0.45117,16.77667 3.29534,20.39246 3.21182,4.08317 3.74963,4.18935 21.21818,4.18935 16.20157,0 18.21374,-0.32143 20.95172,-3.34687 z m -0.82375,-61.71965 c 4.45785,-4.45784 4.64761,-5.24009 4.64761,-19.15861 0,-15.0819 -2.20898,-22.56997 -7.2261,-24.49522 -1.4156,-0.54322 -9.70269,-0.98766 -18.41574,-0.98766 -14.69989,0 -16.1233,0.28134 -19.7446,3.90265 -3.64623,3.64623 -3.89934,4.97825 -3.8521,20.27213 0.0707,22.90269 2.16318,24.99115 25.11378,25.06597 14.29946,0.0466 14.99567,-0.11778 19.47715,-4.59926 z m -2.75739,-59.12657 c 5.69524,-2.59492 7.405,-7.91899 7.405,-23.05859 0,-21.99634 -2.41548,-24.34453 -25.11431,-24.41465 -15.2939,-0.0472 -16.62591,0.20587 -20.27213,3.85209 -3.65224,3.65224 -3.90266,4.98316 -3.90266,20.7419 0,15.75874 0.25042,17.08966 3.90266,20.7419 3.59572,3.59573 5.09037,3.90266 19.00483,3.90266 8.3062,0 16.84568,-0.79439 18.97661,-1.76531 z"
       id="path9514"
       transform="scale(0.26458333)" />
    <path
       style="fill:#35424a;fill-opacity:1;stroke:#000000;stroke-width:1.58997;stroke-opacity:1"
       d="m 707.5372,741.53316 c 0,-72.5038 -0.47868,-76.68079 -9.89705,-86.36211 -10.64896,-10.94629 -11.97792,-11.15888 -69.99901,-11.19779 l -52.07156,-0.0349 v -4.87444 c 0,-2.68095 0.74066,-6.25838 1.64592,-7.94986 1.56119,-2.91712 3.73246,-3.07542 42.1853,-3.07542 30.79381,0 41.76935,-0.52407 45.65573,-2.18004 15.95039,-6.79638 19.51806,-27.09207 6.8137,-38.76172 l -5.62559,-5.1674 h -25.90409 c -27.45577,0 -32.97154,-1.31244 -32.97154,-7.84533 0,-6.70326 3.16174,-7.22159 49.13096,-8.05438 41.69815,-0.75542 44.2166,-0.97359 50.5975,-4.38319 8.56624,-4.57734 16.92329,-12.9361 21.49168,-21.49608 2.99442,-5.61078 3.58454,-9.19925 3.58821,-21.81987 0.005,-13.7615 -0.41328,-15.85874 -4.69231,-23.5836 -5.58087,-10.07506 -11.31267,-15.22804 -23.1278,-20.79224 l -8.74484,-4.11828 -80.69104,-0.4903 -80.69104,-0.4903 V 345.78624 222.71658 l 12.32228,5.27915 c 67.44954,28.89692 124.53936,75.40937 166.08407,135.31269 36.48488,52.60754 59.95756,116.5214 66.53319,181.16343 2.69493,26.4927 1.17247,74.11013 -3.15479,98.67151 -7.212,40.93491 -17.16719,71.6227 -35.07372,108.11804 -9.2383,18.82862 -26.92448,48.69688 -31.96338,53.97953 -0.86219,0.9039 -1.44078,-24.67985 -1.44078,-63.70777 z"
       id="path9664"
       transform="scale(0.26458333)" />
    <path
       style="fill:#e8491d;fill-opacity:1;stroke:#000000;stroke-width:1.58997;stroke-opacity:1"
       d="M 118.59951,840.61256 C 74.834032,792.53497 42.47185,731.42898 27.912392,669.37789 12.713146,604.60009 14.700804,535.38673 33.585911,471.81707 47.05578,426.47578 72.823585,377.36629 101.67486,342.04997 l 9.57341,-11.71864 0.42235,193.89551 0.42235,193.89551 4.81195,7.78265 c 2.9793,4.81862 7.77419,9.61529 12.58991,12.5946 l 7.77797,4.81195 39.48165,0.47521 39.48164,0.47521 0.038,46.42894 c 0.0348,42.60229 0.67669,52.47326 3.92386,60.34119 1.07788,2.61176 -1.6344,2.78245 -44.21607,2.78245 h -45.36441 l -12.0179,-13.20199 z"
       id="path9703"
       transform="scale(0.26458333)" />
    <path
       style="fill:#e8491d;fill-opacity:1;stroke:#000000;stroke-width:1.58997;stroke-opacity:1"
       d="m 709.07807,744.50403 c -0.027,-31.26281 -0.74053,-62.16948 -1.58563,-68.6815 -1.8765,-14.45951 -6.41689,-21.99102 -17.01183,-28.21885 l -7.58797,-4.46032 -52.86654,-0.54272 -52.86655,-0.54272 0.0244,-3.43221 c 0.0577,-8.13933 0.0941,-8.14658 45.11236,-8.9971 39.52897,-0.74681 42.35096,-0.99655 46.56775,-4.12113 7.43331,-5.50796 11.64367,-13.05209 11.64367,-20.86308 0,-8.15582 -1.69882,-12.00213 -8.45254,-19.1375 l -4.89103,-5.1674 -24.73014,-0.15849 c -13.60158,-0.0872 -26.51887,-0.65311 -28.70508,-1.25765 -4.85534,-1.34264 -6.22626,-7.20615 -2.07153,-8.86005 1.57659,-0.62761 22.28959,-1.73964 46.02889,-2.47117 38.62301,-1.19019 43.82619,-1.66872 49.4743,-4.55018 9.57248,-4.88352 15.97627,-10.91277 21.12483,-19.8893 4.34337,-7.57267 4.66151,-9.26672 4.66151,-24.82204 0,-15.55533 -0.31814,-17.24938 -4.66151,-24.82204 -5.35528,-9.33693 -11.44763,-14.90274 -22.96232,-20.9777 l -8.12068,-4.28435 -80.69104,-0.50196 -80.69104,-0.50195 V 346.50926 c 0,-66.40334 0.32565,-120.73335 0.72367,-120.73335 2.32737,0 32.47278,14.21969 44.59051,21.0335 33.73449,18.9689 57.88513,37.37626 85.92664,65.49236 34.44706,34.53868 58.05791,68.35543 77.18975,110.55537 27.74234,61.19251 38.51955,122.33165 33.36315,189.26906 -3.6609,47.52335 -14.48119,87.99453 -35.18825,131.61461 -8.67985,18.28443 -30.8991,57.60469 -32.55148,57.60469 -0.41091,0 -0.76921,-25.57866 -0.79622,-56.84147 z"
       id="path9964"
       transform="scale(0.26458333)" />
    <path
       style="fill:#e8491d;fill-opacity:1;stroke:#000000;stroke-width:1.58997;stroke-opacity:1"
       d="m 534.23033,565.17936 v -78.75898 l 80.95337,0.4529 80.95337,0.4529 6.77048,4.76991 c 19.9459,14.05223 18.25424,43.02231 -3.17279,54.33445 -6.81692,3.59891 -8.13547,3.69957 -48.49413,3.70197 -45.48419,0.003 -48.73898,0.58098 -55.5471,9.86892 -4.69939,6.4111 -5.28024,19.73326 -1.14733,26.31499 6.42505,10.23203 10.67314,11.50017 38.54627,11.50682 20.53674,0.005 25.36865,0.44611 27.427,2.50447 3.17135,3.17134 3.17135,6.14134 0,9.31268 -2.14173,2.14174 -8.33239,2.49853 -43.35152,2.49853 -36.52926,0 -41.42633,0.30749 -46.27024,2.9053 -7.02227,3.76609 -11.22784,11.7507 -11.22784,21.31696 v 7.57717 H 546.9501 534.23033 Z"
       id="path10003"
       transform="scale(0.26458333)" />
    <path
       style="fill:#e8491d;fill-opacity:1;stroke:#000000;stroke-width:1.58997;stroke-opacity:1"
       d="m 361.86146,466.50051 c -10.25507,-15.38929 -18.35894,-28.26718 -18.00859,-28.61753 0.78376,-0.78376 66.80044,-5.50006 67.47968,-4.82082 0.77621,0.7762 -28.63335,61.41889 -29.78598,61.41889 -0.57174,0 -9.43004,-12.59124 -19.68511,-27.98054 z"
       id="path10137"
       transform="scale(0.26458333)" />
    <path
       style="fill:#ffffff;fill-opacity:1;stroke:#000000;stroke-width:1.58997;stroke-opacity:1"
       d="m 146.52958,725.03523 c -2.92197,-0.69086 -7.75151,-3.61992 -10.73231,-6.50903 l -5.41963,-5.25291 V 472.70453 232.1358 h 193.1815 193.18151 V 437.11971 642.1036 l -138.00117,0.51989 c -131.8306,0.49663 -138.21128,0.65349 -142.69992,3.50814 -7.05322,4.48566 -13.41599,10.75234 -16.33812,16.09139 -2.0888,3.81645 -2.72584,10.72904 -3.18694,34.58187 l -0.57628,29.81196 -32.04799,-0.16275 c -17.62639,-0.0895 -34.43868,-0.728 -37.36065,-1.41887 z m 74.15789,-116.73558 c 2.3614,-1.23712 6.7424,-4.79728 9.73555,-7.91146 5.27255,-5.48576 5.51065,-5.56429 7.64252,-2.52061 2.23232,3.18708 10.46751,4.30542 14.17317,1.92472 1.90186,-1.22184 18.74207,-52.61637 20.49052,-62.53489 1.11541,-6.32745 -1.92263,-10.97693 -7.17246,-10.97693 -3.87697,0 -38.11925,9.99198 -52.46461,15.3093 -15.37708,5.69975 -18.81034,11.48818 -11.73238,19.78061 1.83454,2.14931 1.13928,3.65622 -5.01158,10.86215 -3.92789,4.60163 -7.14162,9.38927 -7.14162,10.63916 0,2.50708 23.39882,27.67725 25.72946,27.67725 0.80188,0 3.39002,-1.01219 5.75143,-2.2493 z m 281.74344,-69.78664 c 4.20285,-1.43324 6.02937,-3.25977 7.46262,-7.46262 2.65373,-7.78183 2.54881,-27.59293 -0.18075,-34.12565 -2.82078,-6.75111 -9.16392,-8.78225 -27.46535,-8.7947 -11.48735,-0.008 -13.55633,0.44506 -17.48968,3.82839 -4.41421,3.79694 -4.46108,4.0323 -4.46108,22.39726 0,18.36496 0.0469,18.60033 4.46108,22.39726 3.99878,3.4396 5.89367,3.82797 18.28467,3.74753 7.60297,-0.0493 16.32779,-0.94373 19.38849,-1.98747 z M 390.10779,518.58492 c 2.95803,-3.26857 43.1356,-87.82755 44.69317,-94.0626 1.74739,-6.99497 -2.19521,-10.07436 -13.8484,-10.81639 l -10.31408,-0.65673 -2.49678,-8.97069 c -7.54915,-27.12348 -35.10386,-51.1695 -66.6062,-58.12488 l -4.28324,-0.94569 -0.48667,-33.32817 c -0.43034,-29.47031 -0.81518,-33.65643 -3.32466,-36.16394 -2.63355,-2.63148 -8.48221,-2.86845 -81.18727,-3.28948 l -78.34927,-0.45372 -2.28623,4.27263 c -3.21801,6.014 -3.42775,158.30535 -0.22244,161.51512 1.53024,1.53239 10.83884,2.19822 36.00652,2.57552 l 33.94274,0.50887 2.66699,10.61735 c 3.88382,15.46155 11.25767,28.26198 23.29425,40.43697 23.12538,23.39133 53.7171,30.36155 88.25456,20.10851 11.77345,-3.49515 12.1155,-3.50937 13.75931,-0.57205 5.4571,9.75129 15.4248,13.27532 20.7877,7.34937 z m 117.32792,-44.29808 c 3.0613,-3.06449 3.58414,-5.64203 4.206,-20.7351 l 0.71012,-17.23559 -5.81077,-5.10193 c -5.46923,-4.80205 -6.53181,-5.10141 -18.07773,-5.09306 -6.74682,0.005 -14.92893,0.74816 -18.18247,1.65176 -9.20227,2.55572 -10.77918,6.15067 -10.77918,24.57389 0,24.15364 2.44112,26.38907 28.18146,25.8071 14.35603,-0.32458 16.66542,-0.7767 19.75257,-3.86707 z m -1.2443,-61.00972 c 4.09615,-3.22203 4.18935,-3.70614 4.18935,-21.75963 0,-16.76943 -0.31732,-18.80207 -3.45709,-22.1442 -3.21587,-3.42313 -4.70375,-3.67991 -21.32328,-3.67991 h -17.86617 l -4.25282,5.05419 c -4.1085,4.88267 -4.2347,5.61588 -3.71877,21.60519 0.51192,15.86542 0.71883,16.70982 4.99512,20.38534 4.09077,3.51606 5.82179,3.83436 20.85271,3.83436 14.17542,0 16.95801,-0.44554 20.58095,-3.29534 z m 0.37342,-62.52947 c 5.23185,-5.23184 5.40562,-5.80777 5.39703,-17.88717 -0.005,-6.8647 -0.74816,-15.14326 -1.65176,-18.39679 -2.57066,-9.2561 -6.11019,-10.77919 -25.04998,-10.77919 -16.07623,0 -16.57247,0.10925 -21.11082,4.64761 -4.44273,4.44272 -4.64762,5.27338 -4.64762,18.8424 0,25.28589 3.36162,28.80967 27.586,28.91681 13.91628,0.0616 14.13079,0.003 19.47715,-5.34367 z m -4.13392,-58.68018 c 4.20285,-1.43324 6.02937,-3.25977 7.46262,-7.46262 2.65373,-7.78182 2.54881,-27.59293 -0.18075,-34.12565 -2.82078,-6.75111 -9.16392,-8.78225 -27.46535,-8.79471 -11.48735,-0.008 -13.55633,0.44507 -17.48968,3.8284 -4.41421,3.79694 -4.46108,4.0323 -4.46108,22.39726 0,18.36496 0.0469,18.60033 4.46108,22.39726 3.99878,3.4396 5.89367,3.82797 18.28467,3.74753 7.60297,-0.0494 16.32779,-0.94372 19.38849,-1.98747 z"
       id="path10176"
       transform="scale(0.26458333)" />
    <path
       style="fill:#35424a;fill-opacity:1;stroke:#000000;stroke-width:1.58997;stroke-opacity:1"
       d="m 187.6166,356.94854 v -65.98381 h 65.98381 65.98381 v 27.57149 27.57148 l -9.14234,1.98948 c -32.51808,7.07629 -59.54927,33.96489 -65.73057,65.38383 l -1.85944,9.45134 H 215.23424 187.6166 Z"
       id="path10326"
       transform="scale(0.26458333)" />
    <path
       style="fill:#ffffff;fill-opacity:1;stroke:#000000;stroke-width:1.58997;stroke-opacity:1"
       d="m 313.95341,495.53668 c -34.44276,-8.76947 -57.89585,-42.4119 -51.93005,-74.49135 6.61758,-35.58423 41.39315,-61.51336 74.40567,-55.47788 21.50624,3.93186 40.03263,18.2792 50.183,38.86308 2.83417,5.74739 4.83193,10.74532 4.43947,11.10651 -0.39246,0.36119 -12.87684,1.5315 -27.74308,2.60069 -14.86623,1.06919 -30.55283,2.49824 -34.85911,3.17567 -7.47697,1.17622 -12.04504,4.54238 -12.04504,8.87588 0,1.03357 8.58585,14.88066 19.07966,30.7713 10.49381,15.89065 19.07965,29.15072 19.07965,29.46684 0,0.31612 -3.39856,1.73915 -7.55236,3.16228 -10.48468,3.59215 -23.5695,4.3628 -33.05781,1.94698 z"
       id="path10587"
       transform="scale(0.26458333)" />
    <path
       style="fill:#cccccc;fill-opacity:1;stroke:#000000;stroke-width:1.58997;stroke-opacity:1"
       d="m 149.82932,723.52512 c -4.58451,-0.74602 -8.57818,-2.84386 -12.32227,-6.47277 l -5.53944,-5.36903 V 472.70453 233.72577 h 191.59153 191.59154 v 203.30779 203.30779 l -136.34004,0.75599 c -150.25693,0.83314 -142.0532,0.24762 -152.75197,10.90216 -9.51963,9.48025 -10.19556,12.16559 -11.06708,43.96722 l -0.79639,29.06016 -28.79152,-0.19902 c -15.83533,-0.10939 -31.84379,-0.69569 -35.57436,-1.30274 z m 70.08873,-113.18635 c 1.9101,-0.99009 6.36129,-4.13276 9.89154,-6.98374 5.7333,-4.63014 6.74189,-4.94723 9.44623,-2.96976 3.96546,2.89961 11.12109,2.82523 14.09282,-0.14644 2.27398,-2.27398 16.54617,-44.53675 20.27543,-60.03956 1.55839,-6.47833 1.42817,-8.13651 -0.92045,-11.72098 -2.44482,-3.73125 -3.45292,-4.07679 -9.48257,-3.25034 -8.00801,1.09762 -51.94003,14.55421 -58.36876,17.87863 -2.46728,1.27589 -5.63126,4.06772 -7.03106,6.20409 -2.33547,3.56438 -2.33278,4.30987 0.0327,9.05166 2.8341,5.68109 3.55565,3.83528 -7.33883,18.77349 -2.9386,4.02933 -3.17001,5.28999 -1.53226,8.34735 2.63501,4.919 23.63784,26.65575 25.7558,26.65575 0.93855,0 3.26927,-0.81007 5.17937,-1.80015 z m 285.25886,-71.10071 c 1.94756,-1.04538 4.34678,-3.40628 5.33162,-5.24648 2.69935,-5.04374 3.69308,-26.5861 1.58443,-34.34737 -2.7283,-10.04205 -7.02356,-12.14003 -26.31683,-12.85422 -15.56015,-0.57599 -16.25814,-0.45443 -21.1824,3.68906 l -5.09205,4.28468 v 19.59196 19.59196 l 5.12103,4.30908 c 4.97812,4.18879 5.56608,4.28914 21.06712,3.59551 8.77036,-0.39244 17.53954,-1.56882 19.48708,-2.61418 z M 390.80399,519.47573 c 3.19897,-3.40514 35.17016,-69.11991 43.24553,-88.88845 3.43957,-8.42012 3.51945,-9.30418 1.16535,-12.89699 -2.58653,-3.94755 -8.5131,-5.88774 -17.98489,-5.88774 -4.89916,0 -5.4423,-0.51679 -7.10182,-6.75738 -6.68163,-25.12595 -32.42328,-50.04826 -60.5189,-58.5926 l -10.51921,-3.19907 -0.81771,-32.10677 c -0.44974,-17.65873 -1.31643,-33.30356 -1.926,-34.76629 -0.60956,-1.46274 -2.30506,-3.16065 -3.7678,-3.77315 -1.46272,-0.6125 -38.20155,-1.47935 -81.64182,-1.92634 l -78.98231,-0.81272 -1.56368,6.17583 c -4.20465,16.60654 -3.80782,156.32796 0.46057,162.16535 1.56421,2.13918 7.18857,2.67832 35.54849,3.40769 l 33.69028,0.86645 1.64366,6.52161 c 4.78806,18.99766 13.62777,33.91106 27.71733,46.76173 23.03052,21.00541 50.97549,26.86185 85.2447,17.86476 l 11.37627,-2.98674 5.92438,6.22782 c 7.03179,7.39195 13.47133,8.28319 18.80758,2.603 z m 117.5422,-44.497 c 3.72342,-3.72342 4.09126,-5.41231 4.83132,-22.18224 l 0.80104,-18.15195 -6.9663,-5.20274 c -6.95167,-5.1918 -6.99866,-5.20127 -22.37121,-4.51274 -23.63132,1.05845 -26.72933,4.25416 -26.72933,27.57233 0,16.50156 2.65553,23.95532 9.03756,25.36745 2.46247,0.54485 5.19269,1.27557 6.06717,1.62381 0.87448,0.34823 8.27461,0.38188 16.44472,0.0747 13.39152,-0.50339 15.25174,-0.95539 18.88503,-4.58868 z m -0.20948,-62.07236 c 3.52016,-4.09591 3.83402,-5.81434 3.83402,-20.99231 0,-26.07295 -1.7915,-27.81065 -28.67172,-27.81065 h -17.39232 l -4.18393,6.32233 c -3.96823,5.99642 -4.15052,7.15354 -3.53627,22.44696 0.63968,15.9259 0.71274,16.18277 5.92859,20.84316 5.27204,4.71056 5.31038,4.71761 22.73428,4.18505 16.8579,-0.51526 17.58413,-0.68566 21.28735,-4.99454 z m -0.53743,-61.54707 6.38423,-6.38424 -0.76918,-15.97345 c -0.60912,-12.64967 -1.42733,-16.85499 -3.93217,-20.20994 -4.06623,-5.44628 -7.60064,-6.34577 -25.69241,-6.53865 l -14.86623,-0.15849 -5.4059,5.4059 c -5.28666,5.28667 -5.40572,5.69875 -5.39704,18.68217 0.01,14.55182 1.9353,23.78608 5.59305,26.82173 3.59409,2.98283 11.37708,4.3967 25.19209,4.57644 l 12.50932,0.16276 z m -2.42237,-58.56679 c 1.94756,-1.04536 4.34678,-3.40627 5.33162,-5.24647 2.69935,-5.04374 3.69308,-26.58609 1.58443,-34.34737 -2.7283,-10.04205 -7.02356,-12.14003 -26.31683,-12.85421 -15.56015,-0.576 -16.25814,-0.45444 -21.1824,3.68905 l -5.09205,4.28468 v 19.59196 19.59197 l 5.12103,4.30906 c 4.97812,4.18881 5.56608,4.28915 21.06712,3.59553 8.77036,-0.39245 17.53954,-1.56884 19.48708,-2.6142 z"
       id="path10836"
       transform="scale(0.26458333)" />
    <path
       style="fill:#cccccc;fill-opacity:1;stroke:#000000;stroke-width:1.58997;stroke-opacity:1"
       d="M 368.07834,964.02297 C 323.17062,960.10401 276.58658,947.34625 236.11073,927.88159 206.2763,913.53434 175.05391,893.4572 155.81718,876.2499 l -7.15487,-6.40005 250.9467,-0.0678 250.94669,-0.0678 -9.27106,7.99433 c -26.64756,22.97785 -78.93599,52.79852 -114.09726,65.07093 -30.86115,10.77153 -61.67522,17.64223 -92.8962,20.71334 -15.34066,1.50901 -51.66316,1.79981 -66.21284,0.53011 z m -1.00435,-38.22913 c 1.45829,-2.60583 1.69721,-2.60583 4.57662,0 4.65837,4.21577 27.44328,3.94938 31.34911,-0.36652 3.86934,-4.27557 2.07747,-10.79971 -3.56386,-12.97593 -6.94324,-2.67845 -25.71358,-1.06154 -28.27053,2.43528 -1.96566,2.68821 -2.33158,2.7143 -4.71015,0.33573 -1.84175,-1.84176 -5.49005,-2.57892 -12.76351,-2.57892 -9.10905,0 -10.45962,0.41977 -12.78906,3.97493 -2.41263,3.68217 -2.41263,4.26769 0,7.94986 2.36323,3.60673 3.62471,3.97493 13.61862,3.97493 8.78597,0 11.32541,-0.5562 12.55276,-2.74936 z m 172.66325,-0.36652 c 3.82206,-4.22331 2.08023,-10.80597 -3.41187,-12.89406 -2.59306,-0.98589 -27.0344,-1.41659 -64.47882,-1.13625 -57.57856,0.43109 -60.40466,0.59092 -62.55834,3.53783 -2.94581,4.03079 -2.85883,8.00805 0.24295,11.10983 2.18656,2.18656 10.29521,2.49853 64.94239,2.49853 59.99664,0 62.55438,-0.12211 65.26369,-3.11588 z M 388.0575,903.04771 c 4.5011,-2.40891 4.08707,-10.33769 -0.70373,-13.47675 -3.28778,-2.15423 -11.75387,-2.41741 -65.11088,-2.02411 -44.32609,0.32673 -61.84929,0.97009 -63.19838,2.3203 -2.45177,2.4538 -2.38637,9.42056 0.11674,12.43662 1.70269,2.05163 10.74657,2.38986 63.90213,2.38986 39.64156,0 63.02518,-0.59217 64.99412,-1.64592 z m 38.7362,-0.85261 c 1.3742,-1.37419 2.50907,-3.34178 2.52197,-4.37242 0.0127,-1.03064 0.92549,-0.0852 2.02797,2.10103 1.79063,3.55074 3.12609,4.02466 12.51427,4.44092 11.59496,0.51411 15.64377,-1.64303 15.64377,-8.33473 0,-5.12458 -3.64039,-7.59828 -12.37503,-8.40901 -8.57381,-0.79581 -16.24445,1.58235 -16.24445,5.03633 0,1.62912 -1.24997,1.10207 -4.06684,-1.7148 -3.80493,-3.80493 -4.88439,-4.02971 -16.76186,-3.49032 -13.60346,0.61776 -15.67112,1.85065 -15.71629,9.37117 -0.0396,6.59147 2.70249,7.87036 16.87477,7.87036 9.77386,0 13.71519,-0.632 15.58172,-2.49853 z"
       id="path11060"
       transform="scale(0.26458333)" />
    <path
       style="fill:#28170b;fill-opacity:1;stroke:#000000;stroke-width:1.58997;stroke-opacity:1"
       d="m 214.64853,585.90731 c -1.84293,-2.2206 -0.95341,-3.745 6.77721,-11.61431 5.92726,-6.0336 9.06829,-10.60844 9.40683,-13.70083 0.43651,-3.98732 1.63034,-5.03592 8.4581,-7.42914 12.00683,-4.20855 12.01634,-4.20055 8.3631,7.0359 -2.98603,9.18427 -3.61433,10.00376 -7.15143,9.3276 -3.10197,-0.59298 -5.86393,1.2272 -13.80511,9.09779 -8.83786,8.7593 -10.16013,9.55857 -12.0487,7.28299 z"
       id="path11200"
       transform="scale(0.26458333)" />
    <path
       style="fill:#cccccc;fill-opacity:1;stroke:#000000;stroke-width:1.58997;stroke-opacity:1"
       d="m 284.96067,192.10636 c -1.36566,-1.36567 -1.39892,-2.43791 -0.12331,-3.97493 1.41605,-1.70624 20.98821,-2.1048 103.3602,-2.1048 91.70333,0 101.70864,0.24825 102.59015,2.54543 0.53722,1.39998 -0.0218,3.17774 -1.24237,3.95058 -3.56458,2.25707 -202.31573,1.85265 -204.58467,-0.41628 z"
       id="path22672"
       transform="scale(0.26458333)" />
    <path
       style="fill:#93e4c5;stroke:#000000;stroke-width:1.58997;fill-opacity:1"
       d="m 710.28244,735.03023 c -0.55417,-41.0511 -1.4705,-63.8043 -2.74006,-68.0373 -2.52302,-8.4124 -8.29825,-15.83912 -16.42911,-21.12717 l -6.63066,-4.31237 -52.86654,-0.4948 c -50.00853,-0.46804 -52.86654,-0.65224 -52.86654,-3.40732 0,-1.6019 1.2521,-3.42824 2.78245,-4.05856 1.53034,-0.63032 20.76791,-1.71178 42.75014,-2.40328 22.44131,-0.70593 41.34505,-1.99441 43.10866,-2.93826 5.5465,-2.9684 12.92861,-12.69669 14.01042,-18.46321 1.60294,-8.54444 -0.38086,-15.54881 -6.70153,-23.66168 l -5.74718,-7.37675 -24.03436,-0.18811 c -26.90751,-0.21061 -33.57419,-1.12351 -33.57419,-4.59742 0,-1.94158 4.30577,-2.58161 23.84956,-3.54506 74.0645,-3.6512 74.60832,-3.75486 86.96394,-16.57674 9.50881,-9.86765 12.33633,-17.99216 12.35882,-35.51158 0.0162,-12.62226 -0.60011,-16.41129 -3.74997,-23.05458 -4.34981,-9.17412 -12.68228,-17.51303 -24.02408,-24.04266 l -7.94986,-4.57683 -80.69104,-0.49029 -80.69104,-0.4903 V 346.60842 227.54087 l 9.14234,4.03279 c 28.41721,12.53513 62.48727,32.95021 85.10064,50.99305 29.03481,23.1664 61.72093,58.69756 82.79895,90.00586 12.41321,18.438 31.50682,56.42157 39.98644,79.54642 7.45085,20.31926 15.68539,52.70481 19.26101,75.75146 4.22265,27.21703 3.88069,80.70754 -0.70706,110.60161 -6.08223,39.63219 -17.40079,74.8591 -35.85826,111.60221 -7.0737,14.08155 -23.87588,44.41937 -25.57052,46.16985 -0.24681,0.25494 -0.82343,-27.29131 -1.28137,-61.21389 z"
       id="path957"
       transform="scale(0.26458333)" />
    <path
       style="fill:#93e4c5;fill-opacity:1;stroke:#000000;stroke-width:1.58997"
       d="m 535.8203,565.23477 v -77.1136 h 79.37496 79.37496 l 6.88098,5.19026 c 7.81188,5.89243 14.03585,16.80632 14.03585,24.61217 0,6.51472 -3.76772,15.82242 -8.42324,20.80852 -8.02377,8.59357 -9.92565,8.92718 -55.97059,9.81777 -36.57462,0.70742 -43.76331,1.24266 -48.56398,3.61589 -11.26095,5.56688 -15.62583,21.02231 -9.50687,33.66241 5.39358,11.14163 9.12154,12.4321 38.99119,13.49711 13.99175,0.49889 26.3339,1.4818 27.42701,2.18426 2.55395,1.64125 2.55395,5.30514 0,6.95809 -1.09311,0.70747 -20.94788,1.64406 -44.12171,2.0813 -40.42313,0.7627 -42.33674,0.93944 -47.1208,4.35192 -5.64891,4.02938 -10.11816,13.70927 -10.11816,21.91478 v 5.53272 h -11.1298 -11.1298 z"
       id="path1107"
       transform="scale(0.26458333)" />
    <path
       style="fill:#93e4c5;fill-opacity:1;stroke:#000000;stroke-width:1.58997"
       d="M 118.95554,838.29765 C 64.876214,776.7796 33.082318,707.7821 22.068643,628.03863 c -3.044045,-22.04011 -2.6223,-75.93939 0.771344,-98.57821 9.926019,-66.21597 35.514181,-127.31956 75.461378,-180.19901 l 10.611665,-14.04702 0.79498,192.1238 0.79499,192.12379 5.21266,7.50711 c 2.86696,4.12892 8.59085,9.85282 12.71977,12.71977 l 7.50711,5.21266 39.19939,0.51833 39.1994,0.51831 0.78793,48.7708 c 0.43336,26.82392 1.30083,50.73836 1.92773,53.1432 l 1.13977,4.37242 -43.51206,-0.0143 -43.51207,-0.0143 -12.21709,-13.89758 z"
       id="path1146"
       transform="scale(0.26458333)" />
    <path
       style="fill:#de4528;fill-opacity:1;stroke:#000000;stroke-width:1.58997"
       d="m 363.52722,465.67451 c -9.38815,-14.09463 -16.8327,-25.86327 -16.54343,-26.15253 0.28926,-0.28927 10.16228,-1.271 21.94004,-2.18163 11.77776,-0.91062 25.8034,-2.03222 31.16808,-2.49244 l 9.75398,-0.83676 -14.05983,28.64498 c -7.73291,15.75474 -14.31401,28.64498 -14.62465,28.64498 -0.31065,0 -8.24603,-11.53197 -17.63419,-25.6266 z"
       id="path1185"
       transform="scale(0.26458333)" />
    <path
       style="fill:#1d49dd;fill-opacity:1;stroke:#000000;stroke-width:1.58997"
       d="m 317.85499,494.43807 c -32.83114,-5.44401 -59.90372,-41.35655 -54.21924,-71.92333 5.1075,-27.46414 27.42877,-50.17339 54.28607,-55.22964 24.21814,-4.55939 52.54041,11.05675 65.79303,36.27652 l 5.73695,10.91744 -25.79146,2.01021 c -34.04877,2.65378 -42.44235,4.10265 -46.33843,7.99873 -4.39681,4.39681 -3.33999,6.74089 17.10877,37.94824 9.34446,14.26082 16.59366,26.56994 16.10933,27.35361 -2.17159,3.5137 -22.28061,6.37346 -32.68502,4.64822 z"
       id="path1549"
       transform="scale(0.26458333)" />
    <path
       style="fill:#edb52e;fill-opacity:1;stroke:#000000;stroke-width:1.58997"
       d="m 189.20658,356.94854 v -64.39383 h 64.39383 64.39383 v 25.87103 25.87103 l -13.91438,4.23589 c -30.38112,9.24877 -52.60742,32.26935 -60.15102,62.30057 l -2.63981,10.50914 H 215.2478 189.20658 Z"
       id="path1699"
       transform="scale(0.26458333)" />
    <path
       style="fill:none;stroke:#000000;stroke-width:0.264583px;stroke-linecap:butt;stroke-linejoin:miter;stroke-opacity:1"
       d="m 148.07932,170.37535 c -0.14023,0 -0.42068,-0.14022 -0.42068,0 0,0.14023 0.55672,-0.034 0.42068,0 -0.12076,0.0302 -1.89336,0.42053 -2.31374,0.21034 -0.27966,-0.13983 -0.88215,-0.40029 -1.26204,-0.21034 -0.43531,0.21766 -0.73036,0.21034 -1.26204,0.21034 -0.42068,0 -0.84136,0 -1.26204,0 -0.14023,0 -0.42068,-0.14023 -0.42068,0 0,0.51731 0.34817,-0.13783 0.42068,-0.21034 0.21233,-0.21232 1.57052,0 1.89306,0 1.40226,0 2.80453,0 4.2068,0 z"
       id="path1733" />
    <path
       style="fill:none;stroke:#000000;stroke-width:0.264583px;stroke-linecap:butt;stroke-linejoin:miter;stroke-opacity:1"
       d="m 67.98302,143.90071 c -1.114939,1.28315 -1.707433,2.23003 -2.146618,3.54759 -0.04434,0.13303 0.06271,0.29526 0,0.42068 -0.03136,0.0627 -0.160763,-0.0496 -0.210341,0 -0.145735,0.14573 -0.0646,0.90596 -0.210338,1.0517 -0.04958,0.0496 -0.160764,-0.0496 -0.210341,0 -0.145736,0.14573 -0.06461,0.90596 -0.210341,1.0517 -0.04958,0.0496 -0.160761,-0.0496 -0.210339,0 -0.07697,0.077 -0.006,0.72002 0,0.84136 0.03476,0.7051 0.07642,1.40985 0.114626,2.11477"
       id="path1735" />
    <path
       style="fill:none;stroke:#000000;stroke-width:0.264583px;stroke-linecap:butt;stroke-linejoin:miter;stroke-opacity:1"
       d="m 67.98302,143.90071 c 0.572786,1.29439 -7.392419,2.27285 -7.825796,2.70623 -0.349366,0.34936 0.09851,0.98412 0.183603,1.47081"
       id="path1737" />
    <path
       style="fill:none;stroke:#000000;stroke-width:0.264583px;stroke-linecap:butt;stroke-linejoin:miter;stroke-opacity:1"
       d="m 67.98302,143.90071 c -1.507366,1.83173 -3.42936,2.29245 -5.301718,2.91657 -0.223264,0.0744 -1.320467,-0.17755 -1.47238,0 -0.331658,0.38764 -0.578731,0.84031 -0.868095,1.26047"
       id="path1739" />
    <path
       style="fill:none;stroke:#000000;stroke-width:0.264583px;stroke-linecap:butt;stroke-linejoin:miter;stroke-opacity:1"
       d="m 62.888224,154.94966 c -0.770106,-0.32694 -1.98338,-1.75093 -2.31032,-0.98082 -0.326943,0.7701 1.540214,0.65388 2.31032,0.98082"
       id="path1741" />
    <path
       style="fill:none;stroke:#000000;stroke-width:0.264583px;stroke-linecap:butt;stroke-linejoin:miter;stroke-opacity:1"
       d="m 56.792423,155.0213 c 4.271092,-2.42211 1.813052,-3.33737 6.095801,-0.0716"
       id="path1743" />
    <path
       style="fill:none;stroke:#000000;stroke-width:0.264583px;stroke-linecap:butt;stroke-linejoin:miter;stroke-opacity:1"
       d="m 56.792423,155.0213 c -0.561758,-0.56192 -0.561758,-0.56192 0,0 z"
       id="path1745" />
    <path
       style="fill:none;stroke:#000000;stroke-width:0.264583px;stroke-linecap:butt;stroke-linejoin:miter;stroke-opacity:1"
       d="m 54.843812,154.41069 c 1.093112,0.42713 2.10159,-1.46519 2.999671,-1.91423 0.298532,-0.14927 0.631375,-0.42139 0.63102,-0.42068 -0.505364,1.01143 -1.121386,1.96368 -1.68208,2.94552"
       id="path1747" />
    <path
       style="fill:#000000;fill-opacity:0.995951;stroke:#000000;stroke-width:1.344;stroke-miterlimit:4;stroke-dasharray:none"
       id="path1848"
       d="m 54.560686,155.75517 c 0.953262,-0.26694 1.814219,-0.75982 2.707942,-1.16947 -5.29e-4,-0.0908 0.01886,-0.23025 -0.225684,-0.0866 -0.116224,0.0683 -0.689396,1.03494 -0.780347,1.20572 -0.259191,0.5418 -0.367464,1.1363 -0.483989,1.72085 -0.479829,1.65179 -1.490506,1.25604 3.093707,-1.43736 0.01815,-0.0107 0.03662,0.0758 0.02778,0.0567 -0.03937,-0.0851 -0.0796,-0.16987 -0.119404,-0.25481 -0.308927,-0.65346 -0.50991,-1.35124 -0.793676,-2.01401 -0.150233,-0.34974 -0.331433,-0.68227 -0.43426,-1.05043 0,0 -3.473255,1.90738 -3.473255,1.90738 v 0 c 0.132438,0.37087 0.314402,0.71792 0.479714,1.07473 0.302448,0.64996 0.558884,1.32233 0.802576,1.99598 0.01508,0.041 0.245401,0.73202 0.337839,0.68951 3.008553,-1.38376 3.227043,-0.93017 3.613483,-2.68166 0.110334,-0.55073 0.245078,-1.10504 0.521049,-1.59919 0.152101,-0.24832 0.738172,-1.05131 0.77656,-1.26676 0.02994,-0.16803 0.02802,-0.35224 -0.03507,-0.51083 -0.03608,-0.0907 -0.157824,-0.1149 -0.236734,-0.17235 -0.900065,0.34954 -1.699527,0.94133 -2.646518,1.18134 0,0 -3.13172,2.41127 -3.13172,2.41127 z" />
    <path
       style="fill:#000000;fill-opacity:0.995951;stroke:#000000;stroke-width:1.344;stroke-miterlimit:4;stroke-dasharray:none"
       id="path1850"
       d="m 61.420014,152.44232 c -0.282752,-0.62414 -0.609883,-1.22678 -0.933032,-1.83061 -0.116959,-0.22202 -0.227843,-0.44711 -0.337769,-0.67265 0,0 -3.426979,1.96485 -3.426979,1.96485 v 0 c 0.127336,0.21552 0.253693,0.43163 0.373645,0.65139 0.313618,0.58429 0.656196,1.16084 0.856554,1.79677 0,0 3.467581,-1.90975 3.467581,-1.90975 z" />
    <path
       style="fill:#000000;fill-opacity:0.995951;stroke:#000000;stroke-width:1.344;stroke-miterlimit:4;stroke-dasharray:none"
       id="path1852"
       d="m 66.63854,151.57708 c -0.51326,-1.00638 -1.162394,-1.89096 -1.971657,-2.67659 -0.735766,-0.63878 -1.484042,-1.28129 -2.037715,-2.09025 -0.232185,-0.32927 -0.426913,-0.6848 -0.611677,-1.04257 -0.05367,-0.12256 -0.03004,-0.0642 -0.07197,-0.17476 0,0 -3.466049,1.94952 -3.466049,1.94952 v 0 c 0.06051,0.12429 0.02751,0.0583 0.09962,0.19752 0.204809,0.36549 0.425797,0.72676 0.682416,1.05819 0.600178,0.80945 1.375384,1.46074 2.134629,2.11618 0.785784,0.74323 1.441596,1.58773 1.804451,2.62027 0,0 3.437959,-1.95751 3.437959,-1.95751 z" />
    <path
       style="fill:#000000;fill-opacity:0.995951;stroke:#000000;stroke-width:1.344;stroke-miterlimit:4;stroke-dasharray:none"
       id="path1854"
       d="m 68.079418,149.42697 c -0.453594,-0.85866 -0.928545,-1.70413 -1.413187,-2.54577 -0.423672,-0.65027 -0.727684,-1.36501 -1.083747,-2.05068 0,0 -3.410018,1.96069 -3.410018,1.96069 v 0 c 0.395036,0.66587 0.717259,1.37547 1.148934,2.02097 0.482468,0.83488 0.967105,1.67027 1.332741,2.56508 0,0 3.425277,-1.95029 3.425277,-1.95029 z" />
    <path
       style="fill:#000000;fill-opacity:0.995951;stroke:#000000;stroke-width:1.344;stroke-miterlimit:4;stroke-dasharray:none"
       id="path1856"
       d="m 68.820561,146.32919 c -0.141563,-0.6639 -0.334116,-1.31178 -0.551691,-1.95409 -0.03845,-0.0868 -0.07689,-0.17365 -0.11534,-0.26047 0,0 -3.422681,1.93326 -3.422681,1.93326 v 0 c 0.0354,0.0745 0.07079,0.149 0.10619,0.2235 0.220806,0.61475 0.422543,1.23993 0.488961,1.89345 0,0 3.494561,-1.83565 3.494561,-1.83565 z" />
    <path
       style="fill:#000000;fill-opacity:0.995951;stroke:#000000;stroke-width:1.344;stroke-miterlimit:4;stroke-dasharray:none"
       id="path2090"
       d="m 33.234212,186.11755 c 0,-0.802 0,-1.60401 0,-2.40602 0.03596,-0.78314 -0.0073,-1.54832 -0.183341,-2.31204 -0.21255,-0.77337 -0.25577,-1.56741 -0.26099,-2.36439 -0.01561,-0.87662 0.03698,-1.74647 0.117782,-2.61852 0.06909,-0.96004 0.270489,-1.90061 0.334499,-2.86148 0.02527,-0.80447 0.0026,-1.60966 -0.0043,-2.41433 -0.0055,-0.71702 -0.0052,-1.43407 -0.0045,-2.15111 7.94e-4,-0.67662 7.94e-4,-1.35324 7.94e-4,-2.02987 0.0289,-0.3391 -0.0283,-0.67025 -0.09372,-1.00063 0,0 -0.0011,2e-5 -0.0011,2e-5 v 0 c 0.06543,0.33037 0.122627,0.66152 0.09372,1.00061 -1.3e-5,0.67663 -2.3e-5,1.35325 -7.93e-4,2.02987 -7.94e-4,0.71704 -0.0011,1.43409 0.0045,2.15111 0.0069,0.80467 0.02951,1.60985 0.0043,2.41432 -0.06402,0.96087 -0.265412,1.90144 -0.334502,2.86149 -0.0808,0.87205 -0.133387,1.7419 -0.117782,2.61852 0.0052,0.79699 0.04844,1.59104 0.26099,2.36441 0.176072,0.76372 0.2193,1.52889 0.183341,2.31202 0,0.80201 0,1.60402 0,2.40602 0,0 0.0011,0 0.0011,0 z" />
    <path
       style="fill:#000000;fill-opacity:0.995951;stroke:#000000;stroke-width:1.344;stroke-miterlimit:4;stroke-dasharray:none"
       id="path2092"
       d="m 33.274817,187.54933 c 0.154054,-1.44231 0.172548,-2.89491 0.182782,-4.34405 0.0013,-1.17899 -0.009,-2.35795 -0.0127,-3.53693 -0.0019,-0.85681 -0.0011,-1.71362 -5.29e-4,-2.57044 0.0074,-0.2917 0.01013,-0.57416 -0.04031,-0.86126 0,0 -0.0011,2e-5 -0.0011,2e-5 v 0 c 0.05045,0.28709 0.04765,0.56954 0.04031,0.86124 -5.29e-4,0.85682 -0.0013,1.71363 5.29e-4,2.57044 0.0037,1.17898 0.01394,2.35794 0.0127,3.53693 -0.01024,1.44914 -0.02873,2.90173 -0.182782,4.34404 0,0 0.0011,1e-5 0.0011,1e-5 z" />
    <path
       style="fill:#000000;fill-opacity:0.995951;stroke:#000000;stroke-width:1.344;stroke-miterlimit:4;stroke-dasharray:none"
       id="path2094"
       d="m 33.654891,165.92492 c 0,-1.42995 0,-2.8599 0,-4.28985 -0.009,-1.39763 -0.150886,-2.79011 -0.204901,-4.18706 -0.03494,-1.66879 -0.01476,-3.33834 -0.0097,-5.00739 0.003,-0.95924 0.0044,-1.91849 0.0051,-2.87774 0,0 -0.0011,0 -0.0011,0 v 0 c -5.29e-4,0.95925 -0.0021,1.9185 -0.0051,2.87774 -0.0051,1.66905 -0.02524,3.3386 0.0097,5.0074 0.05401,1.39694 0.195858,2.78942 0.204902,4.18705 0,1.42995 0,2.8599 0,4.28985 0,0 0.0011,0 0.0011,0 z" />
    <path
       style="fill:#000000;fill-opacity:0.995951;stroke:#000000;stroke-width:1.344;stroke-miterlimit:4;stroke-dasharray:none"
       id="path2096"
       d="m 33.44455,176.3607 c 0,-0.80311 0,-1.60622 0,-2.40932 0,0 -0.0011,0 -0.0011,0 v 0 c 0,0.8031 0,1.60621 0,2.40932 0,0 0.0011,0 0.0011,0 z" />
    <path
       style="fill:#000000;fill-opacity:0.995951;stroke:#000000;stroke-width:1.344;stroke-miterlimit:4;stroke-dasharray:none"
       id="path2098"
       d="m 33.824624,148.67703 c -0.161346,-1.33169 -0.369988,-2.65719 -0.530416,-3.98904 -0.07193,-1.02961 -0.111823,-2.05635 -0.217932,-3.08373 0,0 -0.0011,1e-5 -0.0011,1e-5 v 0 c 0.106109,1.02738 0.146002,2.05412 0.217932,3.08373 0.160428,1.33185 0.36907,2.65735 0.530416,3.98905 0,0 0.0011,-2e-5 0.0011,-2e-5 z" />
    <path
       style="fill:#000000;fill-opacity:0.995951;stroke:#000000;stroke-width:1.344;stroke-miterlimit:4;stroke-dasharray:none"
       id="path2100"
       d="m 33.614285,140.6029 c -0.121031,-1.16153 -0.17124,-2.32816 -0.182784,-3.4954 -0.09725,-0.95343 -0.180592,-1.90593 -0.20555,-2.86431 -0.01035,-0.84414 5.29e-4,-1.68835 0.0066,-2.53249 5.29e-4,-0.0659 0.0011,-0.13188 0.0013,-0.19781 0,0 -0.0011,0 -0.0011,0 v 0 c -5.29e-4,0.0659 -0.0011,0.13187 -0.0013,0.19781 -0.0061,0.84414 -0.01699,1.68835 -0.0066,2.53249 0.02495,0.95838 0.108297,1.91088 0.205549,2.86432 0.01154,1.16723 0.06175,2.33387 0.182785,3.49541 0,0 0.0011,-2e-5 0.0011,-2e-5 z" />
    <path
       style="fill:#000000;fill-opacity:0.995951;stroke:#000000;stroke-width:1.344;stroke-miterlimit:4;stroke-dasharray:none"
       id="path2102"
       d="m 33.824624,142.87604 c -0.239617,-1.73824 -0.404783,-3.48829 -0.543761,-5.23756 -0.09446,-1.42133 -0.07479,-2.84627 -0.0595,-4.26957 0.03162,-1.04891 -0.02798,-2.10072 0.05499,-3.14718 0.06605,-0.57957 0.03131,-0.30902 0.101399,-0.812 0,0 -0.0011,-2e-5 -0.0011,-2e-5 v 0 c -0.07009,0.50299 -0.03535,0.23244 -0.101399,0.81201 -0.08296,1.04646 -0.02336,2.09828 -0.05499,3.14719 -0.01529,1.4233 -0.03496,2.84825 0.05951,4.26958 0.138975,1.74927 0.304141,3.49932 0.543759,5.23756 0,0 0.0011,-1e-5 0.0011,-1e-5 z" />
    <path
       style="fill:#000000;fill-opacity:0.995951;stroke:#000000;stroke-width:1.344;stroke-miterlimit:4;stroke-dasharray:none"
       id="path2104"
       d="m 33.44455,127.64305 c 0,-0.86122 0,-1.72244 0,-2.58366 0,-0.57388 0,-1.14777 0,-1.72165 0.01072,-0.81198 0.01709,-1.61818 -0.09368,-2.42377 -0.119208,-0.6021 -0.129659,-1.21529 -0.129767,-1.82659 7.93e-4,-0.3466 0.0098,-0.6931 0.01357,-1.03966 0,0 -0.0011,0 -0.0011,0 v 0 c -0.0037,0.34656 -0.01273,0.69306 -0.01357,1.03966 1.09e-4,0.61131 0.01056,1.2245 0.129768,1.8266 0.110765,0.80559 0.104383,1.61178 0.09368,2.42376 0,0.57388 0,1.14777 0,1.72165 0,0.86122 0,1.72244 0,2.58366 0,0 0.0011,0 0.0011,0 z" />
    <path
       style="fill:#000000;fill-opacity:0.995951;stroke:#000000;stroke-width:1.344;stroke-miterlimit:4;stroke-dasharray:none"
       id="path2106"
       d="m 33.234212,128.86448 c -0.0065,-0.77599 0.105203,-1.54804 0.180313,-2.31938 0,0 -0.0011,-1e-5 -0.0011,-1e-5 v 0 c -0.07511,0.77134 -0.186815,1.54339 -0.180314,2.31939 0,0 0.0011,0 0.0011,0 z" />
    <path
       style="fill:#000000;fill-opacity:0.995951;stroke:#000000;stroke-width:1.344;stroke-miterlimit:4;stroke-dasharray:none"
       id="path2108"
       d="m 33.44455,117.50612 c 0.123545,-1.03961 0.189884,-2.08304 0.218244,-3.12921 0.01127,-1.17428 -0.0019,-2.34869 -0.006,-3.523 0.0053,-1.16288 -0.157247,-2.31657 -0.207253,-3.47792 0.01828,-1.07025 -0.05001,-2.13028 -0.151908,-3.19441 -0.07446,-1.08725 -0.0763,-2.17357 -0.167032,-3.26011 -0.07681,-0.87008 -0.109143,-1.742824 -0.119319,-2.615928 0,0 -0.0011,3e-6 -0.0011,3e-6 v 0 c 0.01019,0.873106 0.0425,1.745855 0.119319,2.615935 0.09073,1.08654 0.09258,2.17286 0.167032,3.2601 0.101893,1.06414 0.170185,2.12417 0.15191,3.19441 0.05,1.16136 0.212513,2.31504 0.207251,3.47792 0.004,1.17431 0.01728,2.34872 0.006,3.523 -0.02836,1.04617 -0.0947,2.0896 -0.218244,3.12921 0,0 0.0011,0 0.0011,0 z" />
    <path
       style="fill:#000000;fill-opacity:0.995951;stroke:#000000;stroke-width:1.344;stroke-miterlimit:4;stroke-dasharray:none"
       id="path2110"
       d="m 33.485156,100.80806 c 0.07268,-1.289814 0.236598,-2.58832 0.142179,-3.88042 -0.155599,-0.989262 -0.297815,-1.980039 -0.440984,-2.971692 -0.148944,-0.895546 -0.179573,-1.803487 -0.180395,-2.709402 0.0085,-0.798986 0.01603,-1.597962 0.01852,-2.396995 -0.01447,-0.654577 0.140706,-1.295514 0.20446,-1.944772 0.0044,-0.07067 0.0088,-0.141338 0.0132,-0.212008 0,0 -0.0011,-8e-6 -0.0011,-8e-6 v 0 c -0.0044,0.07067 -0.0088,0.141337 -0.0132,0.212008 -0.06376,0.649258 -0.218932,1.290201 -0.204459,1.94478 -0.0024,0.799033 -0.01003,1.598009 -0.01852,2.396995 7.94e-4,0.90592 0.03145,1.813864 0.180396,2.709418 0.143168,0.99165 0.285382,1.982425 0.440983,2.971684 0.09442,1.292095 -0.0695,2.590596 -0.142179,3.880402 0,0 0.0011,1e-5 0.0011,1e-5 z" />
    <path
       style="fill:#000000;fill-opacity:0.995951;stroke:#000000;stroke-width:1.344;stroke-miterlimit:4;stroke-dasharray:none"
       id="path2112"
       d="m 33.86523,92.014385 c -0.0405,-1.992434 -0.0975,-3.990604 -0.245505,-5.978678 -0.123007,-2.013887 -0.2184,-4.028781 -0.3352,-6.043313 -0.04427,-0.925219 -0.02633,-0.491549 -0.05583,-1.300928 0,0 -0.0011,3e-6 -0.0011,3e-6 v 0 c 0.02951,0.809382 0.01156,0.375711 0.05583,1.30093 0.116801,2.014532 0.212196,4.029429 0.335201,6.043316 0.148003,1.988071 0.205004,3.986239 0.245504,5.97867 0,0 0.0011,0 0.0011,0 z" />
    <path
       style="fill:#000000;fill-opacity:0.995951;stroke:#000000;stroke-width:1.344;stroke-miterlimit:4;stroke-dasharray:none;stroke-opacity:1"
       id="path2114"
       d="m 33.614285,77.460318 c -0.302148,-1.904389 -0.365982,-3.832961 -0.401028,-5.757286 -0.0715,-1.878028 0.119557,-3.747016 0.333298,-5.609653 0.201144,-1.586786 0.499446,-3.167293 0.571098,-4.767884 0.0049,-0.216964 -0.0085,-0.433642 -0.01958,-0.650179 0,0 -0.0011,5e-6 -0.0011,5e-6 v 0 c 0.01106,0.216535 0.02447,0.43321 0.01958,0.650168 -0.07165,1.600592 -0.369956,3.181096 -0.571095,4.767879 -0.213744,1.86264 -0.404802,3.731633 -0.333301,5.609667 0.03505,1.924328 0.09888,3.852902 0.401029,5.757294 0,0 0.0011,-1.1e-5 0.0011,-1.1e-5 z" />
  </g>
</svg>
